<?xml version="1.0" encoding="us-ascii" standalone="no"?><svg xmlns="http://www.w3.org/2000/svg" xmlns:xlink="http://www.w3.org/1999/xlink" contentStyleType="text/css" height="957px" preserveAspectRatio="none" style="width:2435px;height:957px;background:#FFFFFF;" version="1.1" viewBox="0 0 2435 957" width="2435px" zoomAndPan="magnify"><defs><filter height="1" id="bf5ons6s3tgtf0" width="1" x="0" y="0"><feFlood flood-color="#FFE0B2" result="flood"/><feComposite in="SourceGraphic" in2="flood" operator="over"/></filter><filter height="1" id="bf5ons6s3tgtf1" width="1" x="0" y="0"><feFlood flood-color="#E1F5FE" result="flood"/><feComposite in="SourceGraphic" in2="flood" operator="over"/></filter><filter height="1" id="bf5ons6s3tgtf2" width="1" x="0" y="0"><feFlood flood-color="#F3E5F5" result="flood"/><feComposite in="SourceGraphic" in2="flood" operator="over"/></filter><filter height="1" id="bf5ons6s3tgtf3" width="1" x="0" y="0"><feFlood flood-color="#F5F5F5" result="flood"/><feComposite in="SourceGraphic" in2="flood" operator="over"/></filter></defs><g><text fill="#000000" font-family="Verdana" font-size="22" font-weight="bold" lengthAdjust="spacing" textLength="351" x="1037.5" y="40.5201">Effect &#12503;&#12525;&#12472;&#12455;&#12463;&#12488; - &#38598;&#32004;&#12398;&#20840;&#20307;&#20687;</text><!--cluster Learning Context\n????????--><g id="cluster_Learning Context\n&#23398;&#32722;&#12467;&#12531;&#12486;&#12461;&#12473;&#12488;"><path d="M13.5,64.3881 L132.5,64.3881 A3.75,3.75 0 0 1 135,66.8881 L142,110.9319 L488.5,110.9319 A2.5,2.5 0 0 1 491,113.4319 L491,690.3881 A2.5,2.5 0 0 1 488.5,692.8881 L13.5,692.8881 A2.5,2.5 0 0 1 11,690.3881 L11,66.8881 A2.5,2.5 0 0 1 13.5,64.3881 " fill="#FAFAFA" style="stroke:#BDBDBD;stroke-width:1.0;"/><line style="stroke:#BDBDBD;stroke-width:1.0;" x1="11" x2="142" y1="110.9319" y2="110.9319"/><text fill="#000000" font-family="Verdana" font-size="14" font-weight="bold" lengthAdjust="spacing" textLength="118" x="15" y="82.628">Learning Context</text><text fill="#000000" font-family="Verdana" font-size="14" font-weight="bold" lengthAdjust="spacing" textLength="112" x="18" y="102.8999">&#23398;&#32722;&#12467;&#12531;&#12486;&#12461;&#12473;&#12488;</text></g><!--cluster Vocabulary Context\n??????????--><g id="cluster_Vocabulary Context\n&#35486;&#24409;&#31649;&#29702;&#12467;&#12531;&#12486;&#12461;&#12473;&#12488;"><path d="M517.5,104.8881 L658.5,104.8881 A3.75,3.75 0 0 1 661,107.3881 L668,151.4319 L940.5,151.4319 A2.5,2.5 0 0 1 943,153.9319 L943,730.8881 A2.5,2.5 0 0 1 940.5,733.3881 L517.5,733.3881 A2.5,2.5 0 0 1 515,730.8881 L515,107.3881 A2.5,2.5 0 0 1 517.5,104.8881 " fill="#FAFAFA" style="stroke:#BDBDBD;stroke-width:1.0;"/><line style="stroke:#BDBDBD;stroke-width:1.0;" x1="515" x2="668" y1="151.4319" y2="151.4319"/><text fill="#000000" font-family="Verdana" font-size="14" font-weight="bold" lengthAdjust="spacing" textLength="135" x="521.5" y="123.128">Vocabulary Context</text><text fill="#000000" font-family="Verdana" font-size="14" font-weight="bold" lengthAdjust="spacing" textLength="140" x="519" y="143.3999">&#35486;&#24409;&#31649;&#29702;&#12467;&#12531;&#12486;&#12461;&#12473;&#12488;</text></g><!--cluster Learning Algorithm Context\n??????????????--><g id="cluster_Learning Algorithm Context\n&#23398;&#32722;&#12450;&#12523;&#12468;&#12522;&#12474;&#12512;&#12467;&#12531;&#12486;&#12461;&#12473;&#12488;"><path d="M969.5,64.3881 L1166.5,64.3881 A3.75,3.75 0 0 1 1169,66.8881 L1176,110.9319 L1176.5,110.9319 A2.5,2.5 0 0 1 1179,113.4319 L1179,402.8881 A2.5,2.5 0 0 1 1176.5,405.3881 L969.5,405.3881 A2.5,2.5 0 0 1 967,402.8881 L967,66.8881 A2.5,2.5 0 0 1 969.5,64.3881 " fill="#FAFAFA" style="stroke:#BDBDBD;stroke-width:1.0;"/><line style="stroke:#BDBDBD;stroke-width:1.0;" x1="967" x2="1176" y1="110.9319" y2="110.9319"/><text fill="#000000" font-family="Verdana" font-size="14" font-weight="bold" lengthAdjust="spacing" textLength="190" x="974" y="82.628">Learning Algorithm Context</text><text fill="#000000" font-family="Verdana" font-size="14" font-weight="bold" lengthAdjust="spacing" textLength="196" x="971" y="102.8999">&#23398;&#32722;&#12450;&#12523;&#12468;&#12522;&#12474;&#12512;&#12467;&#12531;&#12486;&#12461;&#12473;&#12488;</text></g><!--cluster Progress Context\n????????--><g id="cluster_Progress Context\n&#36914;&#25431;&#12467;&#12531;&#12486;&#12461;&#12473;&#12488;"><path d="M1205.5,104.8881 L1324.5,104.8881 A3.75,3.75 0 0 1 1327,107.3881 L1334,151.4319 L1719.5,151.4319 A2.5,2.5 0 0 1 1722,153.9319 L1722,342.3881 A2.5,2.5 0 0 1 1719.5,344.8881 L1205.5,344.8881 A2.5,2.5 0 0 1 1203,342.3881 L1203,107.3881 A2.5,2.5 0 0 1 1205.5,104.8881 " fill="#FAFAFA" style="stroke:#BDBDBD;stroke-width:1.0;"/><line style="stroke:#BDBDBD;stroke-width:1.0;" x1="1203" x2="1334" y1="151.4319" y2="151.4319"/><text fill="#000000" font-family="Verdana" font-size="14" font-weight="bold" lengthAdjust="spacing" textLength="118" x="1207" y="123.128">Progress Context</text><text fill="#000000" font-family="Verdana" font-size="14" font-weight="bold" lengthAdjust="spacing" textLength="112" x="1210" y="143.3999">&#36914;&#25431;&#12467;&#12531;&#12486;&#12461;&#12473;&#12488;</text><text fill="#000000" font-family="Verdana" font-size="14" font-style="italic" lengthAdjust="spacing" textLength="102" x="1415.5" y="169.6718">&#171;No Aggregate&#187;</text></g><!--cluster AI Integration Context\nAI????????--><g id="cluster_AI Integration Context\nAI&#32113;&#21512;&#12467;&#12531;&#12486;&#12461;&#12473;&#12488;"><path d="M1748.5,84.3881 L1902.5,84.3881 A3.75,3.75 0 0 1 1905,86.8881 L1912,130.9319 L2203.5,130.9319 A2.5,2.5 0 0 1 2206,133.4319 L2206,382.8881 A2.5,2.5 0 0 1 2203.5,385.3881 L1748.5,385.3881 A2.5,2.5 0 0 1 1746,382.8881 L1746,86.8881 A2.5,2.5 0 0 1 1748.5,84.3881 " fill="#FAFAFA" style="stroke:#BDBDBD;stroke-width:1.0;"/><line style="stroke:#BDBDBD;stroke-width:1.0;" x1="1746" x2="1912" y1="130.9319" y2="130.9319"/><text fill="#000000" font-family="Verdana" font-size="14" font-weight="bold" lengthAdjust="spacing" textLength="153" x="1750" y="102.628">AI Integration Context</text><text fill="#000000" font-family="Verdana" font-size="14" font-weight="bold" lengthAdjust="spacing" textLength="126" x="1763.5" y="122.8999">AI&#32113;&#21512;&#12467;&#12531;&#12486;&#12461;&#12473;&#12488;</text></g><!--cluster User Context\n??????????--><g id="cluster_User Context\n&#12518;&#12540;&#12470;&#12540;&#12467;&#12531;&#12486;&#12461;&#12473;&#12488;"><path d="M2232.5,84.3881 L2373.5,84.3881 A3.75,3.75 0 0 1 2376,86.8881 L2383,130.9319 L2425.5,130.9319 A2.5,2.5 0 0 1 2428,133.4319 L2428,382.8881 A2.5,2.5 0 0 1 2425.5,385.3881 L2232.5,385.3881 A2.5,2.5 0 0 1 2230,382.8881 L2230,86.8881 A2.5,2.5 0 0 1 2232.5,84.3881 " fill="#FAFAFA" style="stroke:#BDBDBD;stroke-width:1.0;"/><line style="stroke:#BDBDBD;stroke-width:1.0;" x1="2230" x2="2383" y1="130.9319" y2="130.9319"/><text fill="#000000" font-family="Verdana" font-size="14" font-weight="bold" lengthAdjust="spacing" textLength="89" x="2259.5" y="102.628">User Context</text><text fill="#000000" font-family="Verdana" font-size="14" font-weight="bold" lengthAdjust="spacing" textLength="140" x="2234" y="122.8999">&#12518;&#12540;&#12470;&#12540;&#12467;&#12531;&#12486;&#12461;&#12473;&#12488;</text></g><!--class LearningSession--><g id="elem_LearningSession"><rect codeLine="28" fill="#FFE0B2" height="225.8233" id="LearningSession" rx="2.5" ry="2.5" style="stroke:#424242;stroke-width:1.0;" width="182" x="293" y="143.3881"/><ellipse cx="325.8" cy="167.2121" fill="#FFFFFF" rx="9" ry="9" style="stroke:#000000;stroke-width:1.0;"/><path d="M326.0344,173.9152 C327.1906,173.9152 328.2844,173.4309 329.1125,172.3996 L327.6906,170.884 C327.3,171.4309 326.8313,171.7434 326.2688,171.7434 C325.0813,171.7434 324.0656,170.6027 324.0656,167.3684 C324.0656,164.2121 325.1281,163.0402 326.1594,163.0402 C326.7531,163.0402 327.1281,163.3371 327.55,163.8371 L328.9719,162.2746 C328.3,161.5246 327.3313,160.884 326.05,160.884 C323.6281,160.884 321.4875,162.8527 321.4875,167.4777 C321.4875,172.1184 323.6281,173.9152 326.0344,173.9152 Z " fill="#000000"/><text fill="#000000" font-family="Verdana" font-size="12" font-style="italic" lengthAdjust="spacing" textLength="101" x="346.7" y="162.3082">&#171;Aggregate Root&#187;</text><text fill="#000000" font-family="Verdana" font-size="14" lengthAdjust="spacing" textLength="110" x="342.2" y="182.0041">LearningSession</text><line style="stroke:#424242;stroke-width:1.0;" x1="294" x2="474" y1="191.0361" y2="191.0361"/><text fill="#000000" font-family="Verdana" font-size="14" lengthAdjust="spacing" textLength="142" x="299" y="211.2761">session_id: SessionId</text><text fill="#000000" font-family="Verdana" font-size="14" lengthAdjust="spacing" textLength="100" x="299" y="231.548">user_id: UserId</text><text fill="#000000" font-family="Verdana" font-size="14" lengthAdjust="spacing" textLength="165" x="299" y="251.8199">items: List&lt;SessionItem&gt;</text><text fill="#000000" font-family="Verdana" font-size="14" lengthAdjust="spacing" textLength="141" x="299" y="272.0918">status: SessionStatus</text><text fill="#000000" font-family="Verdana" font-size="14" lengthAdjust="spacing" textLength="146" x="299" y="292.3637">started_at: DateTime?</text><text fill="#000000" font-family="Verdana" font-size="14" lengthAdjust="spacing" textLength="170" x="299" y="312.6356">completed_at: DateTime?</text><line style="stroke:#424242;stroke-width:1.0;" x1="294" x2="474" y1="320.6676" y2="320.6676"/><text fill="#000000" font-family="Verdana" font-size="14" lengthAdjust="spacing" textLength="150" x="299" y="340.9075">&#26368;&#22823;100&#21839;&#65288;&#35373;&#23450;&#21487;&#33021;&#65289;</text><text fill="#000000" font-family="Verdana" font-size="14" lengthAdjust="spacing" textLength="170" x="299" y="361.1794">25&#20998;&#12509;&#12514;&#12489;&#12540;&#12525;&#12475;&#12483;&#12471;&#12519;&#12531;</text></g><!--class SessionItem--><g id="elem_SessionItem"><rect codeLine="40" fill="#F3E5F5" height="165.0076" id="SessionItem" rx="2.5" ry="2.5" style="stroke:#424242;stroke-width:1.0;" width="180" x="294" y="511.8881"/><ellipse cx="339.75" cy="535.7121" fill="#FFFFFF" rx="9" ry="9" style="stroke:#000000;stroke-width:1.0;"/><path d="M339.9844,542.4152 C341.1406,542.4152 342.2344,541.9309 343.0625,540.8996 L341.6406,539.384 C341.25,539.9309 340.7813,540.2434 340.2188,540.2434 C339.0313,540.2434 338.0156,539.1027 338.0156,535.8684 C338.0156,532.7121 339.0781,531.5402 340.1094,531.5402 C340.7031,531.5402 341.0781,531.8371 341.5,532.3371 L342.9219,530.7746 C342.25,530.0246 341.2813,529.384 340,529.384 C337.5781,529.384 335.4375,531.3527 335.4375,535.9777 C335.4375,540.6184 337.5781,542.4152 339.9844,542.4152 Z " fill="#000000"/><text fill="#000000" font-family="Verdana" font-size="12" font-style="italic" lengthAdjust="spacing" textLength="83" x="356.25" y="530.8082">&#171;Value Object&#187;</text><text fill="#000000" font-family="Verdana" font-size="14" lengthAdjust="spacing" textLength="81" x="357.25" y="550.5041">SessionItem</text><line style="stroke:#424242;stroke-width:1.0;" x1="295" x2="473" y1="559.5361" y2="559.5361"/><text fill="#000000" font-family="Verdana" font-size="14" lengthAdjust="spacing" textLength="101" x="300" y="579.7761">item_id: ItemId</text><text fill="#000000" font-family="Verdana" font-size="14" lengthAdjust="spacing" textLength="167" x="300" y="600.048">presented_at: DateTime?</text><text fill="#000000" font-family="Verdana" font-size="14" lengthAdjust="spacing" textLength="164" x="300" y="620.3199">answered_at: DateTime?</text><text fill="#000000" font-family="Verdana" font-size="14" lengthAdjust="spacing" textLength="168" x="300" y="640.5918">correctness: Correctness?</text><text fill="#000000" font-family="Verdana" font-size="14" lengthAdjust="spacing" textLength="166" x="300" y="660.8637">response_time_ms: u32?</text><line style="stroke:#424242;stroke-width:1.0;" x1="295" x2="473" y1="668.8957" y2="668.8957"/></g><!--class UserItemRecord--><g id="elem_UserItemRecord"><rect codeLine="48" fill="#FFE0B2" height="266.3671" id="UserItemRecord" rx="2.5" ry="2.5" style="stroke:#424242;stroke-width:1.0;" width="231" x="26.5" y="123.3881"/><ellipse cx="85.25" cy="147.2121" fill="#FFFFFF" rx="9" ry="9" style="stroke:#000000;stroke-width:1.0;"/><path d="M85.4844,153.9152 C86.6406,153.9152 87.7344,153.4309 88.5625,152.3996 L87.1406,150.884 C86.75,151.4309 86.2813,151.7434 85.7188,151.7434 C84.5313,151.7434 83.5156,150.6027 83.5156,147.3684 C83.5156,144.2121 84.5781,143.0402 85.6094,143.0402 C86.2031,143.0402 86.5781,143.3371 87,143.8371 L88.4219,142.2746 C87.75,141.5246 86.7813,140.884 85.5,140.884 C83.0781,140.884 80.9375,142.8527 80.9375,147.4777 C80.9375,152.1184 83.0781,153.9152 85.4844,153.9152 Z " fill="#000000"/><text fill="#000000" font-family="Verdana" font-size="12" font-style="italic" lengthAdjust="spacing" textLength="101" x="105.25" y="142.3082">&#171;Aggregate Root&#187;</text><text fill="#000000" font-family="Verdana" font-size="14" lengthAdjust="spacing" textLength="106" x="102.75" y="162.0041">UserItemRecord</text><line style="stroke:#424242;stroke-width:1.0;" x1="27.5" x2="256.5" y1="171.0361" y2="171.0361"/><text fill="#000000" font-family="Verdana" font-size="14" lengthAdjust="spacing" textLength="129" x="32.5" y="191.2761">record_id: RecordId</text><text fill="#000000" font-family="Verdana" font-size="14" lengthAdjust="spacing" textLength="100" x="32.5" y="211.548">user_id: UserId</text><text fill="#000000" font-family="Verdana" font-size="14" lengthAdjust="spacing" textLength="101" x="32.5" y="231.8199">item_id: ItemId</text><text fill="#000000" font-family="Verdana" font-size="14" lengthAdjust="spacing" textLength="186" x="32.5" y="252.0918">mastery_state: MasteryState</text><text fill="#000000" font-family="Verdana" font-size="14" lengthAdjust="spacing" textLength="130" x="32.5" y="272.3637">total_attempts: u32</text><text fill="#000000" font-family="Verdana" font-size="14" lengthAdjust="spacing" textLength="145" x="32.5" y="292.6356">correct_attempts: u32</text><text fill="#000000" font-family="Verdana" font-size="14" lengthAdjust="spacing" textLength="164" x="32.5" y="312.9075">consecutive_correct: u32</text><text fill="#000000" font-family="Verdana" font-size="14" lengthAdjust="spacing" textLength="219" x="32.5" y="333.1794">average_response_time_ms: u32</text><line style="stroke:#424242;stroke-width:1.0;" x1="27.5" x2="256.5" y1="341.2114" y2="341.2114"/><text fill="#000000" font-family="Verdana" font-size="14" lengthAdjust="spacing" textLength="126" x="32.5" y="361.4513">UI&#34920;&#31034;&#29992;&#12398;&#23398;&#32722;&#29366;&#24907;</text><text fill="#000000" font-family="Verdana" font-size="14" lengthAdjust="spacing" textLength="154" x="32.5" y="381.7233">&#12510;&#12473;&#12479;&#12522;&#12540;&#21028;&#23450;&#12525;&#12472;&#12483;&#12463;</text></g><!--class VocabularyEntry--><g id="elem_VocabularyEntry"><rect codeLine="67" fill="#FFE0B2" height="185.2795" id="VocabularyEntry" rx="2.5" ry="2.5" style="stroke:#424242;stroke-width:1.0;" width="189" x="568.5" y="163.8881"/><ellipse cx="605.8" cy="187.7121" fill="#FFFFFF" rx="9" ry="9" style="stroke:#000000;stroke-width:1.0;"/><path d="M606.0344,194.4152 C607.1906,194.4152 608.2844,193.9309 609.1125,192.8996 L607.6906,191.384 C607.3,191.9309 606.8313,192.2434 606.2688,192.2434 C605.0813,192.2434 604.0656,191.1027 604.0656,187.8684 C604.0656,184.7121 605.1281,183.5402 606.1594,183.5402 C606.7531,183.5402 607.1281,183.8371 607.55,184.3371 L608.9719,182.7746 C608.3,182.0246 607.3313,181.384 606.05,181.384 C603.6281,181.384 601.4875,183.3527 601.4875,187.9777 C601.4875,192.6184 603.6281,194.4152 606.0344,194.4152 Z " fill="#000000"/><text fill="#000000" font-family="Verdana" font-size="12" font-style="italic" lengthAdjust="spacing" textLength="101" x="626.2" y="182.8082">&#171;Aggregate Root&#187;</text><text fill="#000000" font-family="Verdana" font-size="14" lengthAdjust="spacing" textLength="107" x="623.2" y="202.5041">VocabularyEntry</text><line style="stroke:#424242;stroke-width:1.0;" x1="569.5" x2="756.5" y1="211.5361" y2="211.5361"/><text fill="#000000" font-family="Verdana" font-size="14" lengthAdjust="spacing" textLength="109" x="574.5" y="231.7761">entry_id: EntryId</text><text fill="#000000" font-family="Verdana" font-size="14" lengthAdjust="spacing" textLength="99" x="574.5" y="252.048">spelling: String</text><text fill="#000000" font-family="Verdana" font-size="14" lengthAdjust="spacing" textLength="177" x="574.5" y="272.3199">items: List&lt;ItemSummary&gt;</text><text fill="#000000" font-family="Verdana" font-size="14" lengthAdjust="spacing" textLength="142" x="574.5" y="292.5918">created_at: DateTime</text><line style="stroke:#424242;stroke-width:1.0;" x1="569.5" x2="756.5" y1="300.6238" y2="300.6238"/><text fill="#000000" font-family="Verdana" font-size="14" lengthAdjust="spacing" textLength="140" x="574.5" y="320.8637">&#36605;&#37327;&#12394;&#12452;&#12531;&#12487;&#12483;&#12463;&#12473;&#24441;</text><text fill="#000000" font-family="Verdana" font-size="14" lengthAdjust="spacing" textLength="122" x="574.5" y="341.1356">Wikipedia&#12473;&#12479;&#12452;&#12523;</text></g><!--class ItemSummary--><g id="elem_ItemSummary"><rect codeLine="77" fill="#F3E5F5" height="124.4638" id="ItemSummary" rx="2.5" ry="2.5" style="stroke:#424242;stroke-width:1.0;" width="163" x="531.5" y="532.3881"/><ellipse cx="563.4" cy="556.2121" fill="#FFFFFF" rx="9" ry="9" style="stroke:#000000;stroke-width:1.0;"/><path d="M563.6344,562.9152 C564.7906,562.9152 565.8844,562.4309 566.7125,561.3996 L565.2906,559.884 C564.9,560.4309 564.4313,560.7434 563.8688,560.7434 C562.6813,560.7434 561.6656,559.6027 561.6656,556.3684 C561.6656,553.2121 562.7281,552.0402 563.7594,552.0402 C564.3531,552.0402 564.7281,552.3371 565.15,552.8371 L566.5719,551.2746 C565.9,550.5246 564.9313,549.884 563.65,549.884 C561.2281,549.884 559.0875,551.8527 559.0875,556.4777 C559.0875,561.1184 561.2281,562.9152 563.6344,562.9152 Z " fill="#000000"/><text fill="#000000" font-family="Verdana" font-size="12" font-style="italic" lengthAdjust="spacing" textLength="83" x="584.6" y="551.3082">&#171;Value Object&#187;</text><text fill="#000000" font-family="Verdana" font-size="14" lengthAdjust="spacing" textLength="93" x="579.6" y="571.0041">ItemSummary</text><line style="stroke:#424242;stroke-width:1.0;" x1="532.5" x2="693.5" y1="580.0361" y2="580.0361"/><text fill="#000000" font-family="Verdana" font-size="14" lengthAdjust="spacing" textLength="101" x="537.5" y="600.2761">item_id: ItemId</text><text fill="#000000" font-family="Verdana" font-size="14" lengthAdjust="spacing" textLength="151" x="537.5" y="620.548">disambiguation: String</text><text fill="#000000" font-family="Verdana" font-size="14" lengthAdjust="spacing" textLength="106" x="537.5" y="640.8199">is_primary: bool</text><line style="stroke:#424242;stroke-width:1.0;" x1="532.5" x2="693.5" y1="648.8519" y2="648.8519"/></g><!--class VocabularyItem--><g id="elem_VocabularyItem"><rect codeLine="83" fill="#FFE0B2" height="246.0952" id="VocabularyItem" rx="2.5" ry="2.5" style="stroke:#424242;stroke-width:1.0;" width="197" x="729.5" y="471.3881"/><ellipse cx="772.75" cy="495.2121" fill="#FFFFFF" rx="9" ry="9" style="stroke:#000000;stroke-width:1.0;"/><path d="M772.9844,501.9152 C774.1406,501.9152 775.2344,501.4309 776.0625,500.3996 L774.6406,498.884 C774.25,499.4309 773.7813,499.7434 773.2188,499.7434 C772.0313,499.7434 771.0156,498.6027 771.0156,495.3684 C771.0156,492.2121 772.0781,491.0402 773.1094,491.0402 C773.7031,491.0402 774.0781,491.3371 774.5,491.8371 L775.9219,490.2746 C775.25,489.5246 774.2813,488.884 773,488.884 C770.5781,488.884 768.4375,490.8527 768.4375,495.4777 C768.4375,500.1184 770.5781,501.9152 772.9844,501.9152 Z " fill="#000000"/><text fill="#000000" font-family="Verdana" font-size="12" font-style="italic" lengthAdjust="spacing" textLength="101" x="791.25" y="490.3082">&#171;Aggregate Root&#187;</text><text fill="#000000" font-family="Verdana" font-size="14" lengthAdjust="spacing" textLength="103" x="790.25" y="510.0041">VocabularyItem</text><line style="stroke:#424242;stroke-width:1.0;" x1="730.5" x2="925.5" y1="519.0361" y2="519.0361"/><text fill="#000000" font-family="Verdana" font-size="14" lengthAdjust="spacing" textLength="101" x="735.5" y="539.2761">item_id: ItemId</text><text fill="#000000" font-family="Verdana" font-size="14" lengthAdjust="spacing" textLength="109" x="735.5" y="559.548">entry_id: EntryId</text><text fill="#000000" font-family="Verdana" font-size="14" lengthAdjust="spacing" textLength="99" x="735.5" y="579.8199">spelling: String</text><text fill="#000000" font-family="Verdana" font-size="14" lengthAdjust="spacing" textLength="151" x="735.5" y="600.0918">disambiguation: String</text><text fill="#000000" font-family="Verdana" font-size="14" lengthAdjust="spacing" textLength="185" x="735.5" y="620.3637">definitions: List&lt;Definition&gt;</text><text fill="#000000" font-family="Verdana" font-size="14" lengthAdjust="spacing" textLength="168" x="735.5" y="640.6356">examples: List&lt;Example&gt;</text><text fill="#000000" font-family="Verdana" font-size="14" lengthAdjust="spacing" textLength="80" x="735.5" y="660.9075">version: u32</text><line style="stroke:#424242;stroke-width:1.0;" x1="730.5" x2="925.5" y1="668.9395" y2="668.9395"/><text fill="#000000" font-family="Verdana" font-size="14" lengthAdjust="spacing" textLength="112" x="735.5" y="689.1794">&#35443;&#32048;&#12487;&#12540;&#12479;&#12434;&#20445;&#25345;</text><text fill="#000000" font-family="Verdana" font-size="14" lengthAdjust="spacing" textLength="112" x="735.5" y="709.4513">&#29420;&#31435;&#12375;&#12390;&#32232;&#38598;&#21487;&#33021;</text></g><!--class ItemLearningRecord--><g id="elem_ItemLearningRecord"><rect codeLine="102" fill="#FFE0B2" height="266.3671" id="ItemLearningRecord" rx="2.5" ry="2.5" style="stroke:#424242;stroke-width:1.0;" width="168" x="989" y="123.3881"/><ellipse cx="1004.25" cy="147.2121" fill="#FFFFFF" rx="9" ry="9" style="stroke:#000000;stroke-width:1.0;"/><path d="M1004.4844,153.9152 C1005.6406,153.9152 1006.7344,153.4309 1007.5625,152.3996 L1006.1406,150.884 C1005.75,151.4309 1005.2813,151.7434 1004.7188,151.7434 C1003.5313,151.7434 1002.5156,150.6027 1002.5156,147.3684 C1002.5156,144.2121 1003.5781,143.0402 1004.6094,143.0402 C1005.2031,143.0402 1005.5781,143.3371 1006,143.8371 L1007.4219,142.2746 C1006.75,141.5246 1005.7813,140.884 1004.5,140.884 C1002.0781,140.884 999.9375,142.8527 999.9375,147.4777 C999.9375,152.1184 1002.0781,153.9152 1004.4844,153.9152 Z " fill="#000000"/><text fill="#000000" font-family="Verdana" font-size="12" font-style="italic" lengthAdjust="spacing" textLength="101" x="1033.75" y="142.3082">&#171;Aggregate Root&#187;</text><text fill="#000000" font-family="Verdana" font-size="14" lengthAdjust="spacing" textLength="135" x="1016.75" y="162.0041">ItemLearningRecord</text><line style="stroke:#424242;stroke-width:1.0;" x1="990" x2="1156" y1="171.0361" y2="171.0361"/><text fill="#000000" font-family="Verdana" font-size="14" lengthAdjust="spacing" textLength="129" x="995" y="191.2761">record_id: RecordId</text><text fill="#000000" font-family="Verdana" font-size="14" lengthAdjust="spacing" textLength="100" x="995" y="211.548">user_id: UserId</text><text fill="#000000" font-family="Verdana" font-size="14" lengthAdjust="spacing" textLength="101" x="995" y="231.8199">item_id: ItemId</text><text fill="#000000" font-family="Verdana" font-size="14" lengthAdjust="spacing" textLength="132" x="995" y="252.0918">easiness_factor: f32</text><text fill="#000000" font-family="Verdana" font-size="14" lengthAdjust="spacing" textLength="143" x="995" y="272.3637">repetition_count: u32</text><text fill="#000000" font-family="Verdana" font-size="14" lengthAdjust="spacing" textLength="121" x="995" y="292.6356">interval_days: u32</text><text fill="#000000" font-family="Verdana" font-size="14" lengthAdjust="spacing" textLength="156" x="995" y="312.9075">next_review_date: Date</text><text fill="#000000" font-family="Verdana" font-size="14" lengthAdjust="spacing" textLength="137" x="995" y="333.1794">status: ReviewStatus</text><line style="stroke:#424242;stroke-width:1.0;" x1="990" x2="1156" y1="341.2114" y2="341.2114"/><text fill="#000000" font-family="Verdana" font-size="14" lengthAdjust="spacing" textLength="144" x="995" y="361.4513">SM-2&#12450;&#12523;&#12468;&#12522;&#12474;&#12512;&#23554;&#29992;</text><text fill="#000000" font-family="Verdana" font-size="14" lengthAdjust="spacing" textLength="154" x="995" y="381.7233">&#27425;&#22238;&#20986;&#38988;&#12479;&#12452;&#12511;&#12531;&#12464;&#35336;&#31639;</text></g><g id="elem_N1"><path d="M1490,232.3881 L1490,280.0361 L1706,280.0361 L1706,242.3881 L1696,232.3881 L1490,232.3881 " fill="#FFFFFF" style="stroke:#000000;stroke-width:1.0;"/><path d="M1696,232.3881 L1696,242.3881 L1706,242.3881 L1696,232.3881 " fill="#FFFFFF" style="stroke:#000000;stroke-width:1.0;"/><text fill="#000000" font-family="Verdana" font-size="13" lengthAdjust="spacing" textLength="145" x="1496" y="252.4681">&#32020;&#31883;&#12394;CQRS Read&#12514;&#12487;&#12523;</text><text fill="#000000" font-family="Verdana" font-size="13" lengthAdjust="spacing" textLength="195" x="1496" y="271.2921">&#38598;&#32004;&#12394;&#12375;&#65288;&#12452;&#12505;&#12531;&#12488;&#12477;&#12540;&#12471;&#12531;&#12464;&#65289;</text></g><!--class Projections--><g id="elem_Projections"><rect codeLine="121" fill="#FFFFFF" height="144.7357" id="Projections" rx="2.5" ry="2.5" style="stroke:#424242;stroke-width:1.0;" width="236" x="1219" y="183.8881"/><ellipse cx="1296.25" cy="207.7121" fill="#FFFFFF" rx="9" ry="9" style="stroke:#000000;stroke-width:1.0;"/><path d="M1296.4844,214.4152 C1297.6406,214.4152 1298.7344,213.9309 1299.5625,212.8996 L1298.1406,211.384 C1297.75,211.9309 1297.2813,212.2434 1296.7188,212.2434 C1295.5313,212.2434 1294.5156,211.1027 1294.5156,207.8684 C1294.5156,204.7121 1295.5781,203.5402 1296.6094,203.5402 C1297.2031,203.5402 1297.5781,203.8371 1298,204.3371 L1299.4219,202.7746 C1298.75,202.0246 1297.7813,201.384 1296.5,201.384 C1294.0781,201.384 1291.9375,203.3527 1291.9375,207.9777 C1291.9375,212.6184 1294.0781,214.4152 1296.4844,214.4152 Z " fill="#000000"/><text fill="#000000" font-family="Verdana" font-size="12" font-style="italic" lengthAdjust="spacing" textLength="78" x="1311.75" y="202.8082">&#171;Read Model&#187;</text><text fill="#000000" font-family="Verdana" font-size="14" lengthAdjust="spacing" textLength="74" x="1313.75" y="222.5041">Projections</text><line style="stroke:#424242;stroke-width:1.0;" x1="1220" x2="1454" y1="231.5361" y2="231.5361"/><text fill="#000000" font-family="Verdana" font-size="14" lengthAdjust="spacing" textLength="133" x="1225" y="251.7761">DailyStatsProjection</text><text fill="#000000" font-family="Verdana" font-size="14" lengthAdjust="spacing" textLength="217" x="1225" y="272.048">UserProgressSummaryProjection</text><line style="stroke:#424242;stroke-width:1.0;" x1="1220" x2="1454" y1="280.0799" y2="280.0799"/><text fill="#000000" font-family="Verdana" font-size="14" lengthAdjust="spacing" textLength="224" x="1225" y="300.3199">&#20182;&#12467;&#12531;&#12486;&#12461;&#12473;&#12488;&#12398;&#12452;&#12505;&#12531;&#12488;&#12363;&#12425;&#29983;&#25104;</text><text fill="#000000" font-family="Verdana" font-size="14" lengthAdjust="spacing" textLength="140" x="1225" y="320.5918">&#23432;&#12427;&#12409;&#12365;&#19981;&#22793;&#26465;&#20214;&#12394;&#12375;</text></g><!--class AIGenerationTask--><g id="elem_AIGenerationTask"><rect codeLine="132" fill="#FFE0B2" height="225.8233" id="AIGenerationTask" rx="2.5" ry="2.5" style="stroke:#424242;stroke-width:1.0;" width="180" x="2010" y="143.3881"/><ellipse cx="2038.3" cy="167.2121" fill="#FFFFFF" rx="9" ry="9" style="stroke:#000000;stroke-width:1.0;"/><path d="M2038.5344,173.9152 C2039.6906,173.9152 2040.7844,173.4309 2041.6125,172.3996 L2040.1906,170.884 C2039.8,171.4309 2039.3313,171.7434 2038.7688,171.7434 C2037.5813,171.7434 2036.5656,170.6027 2036.5656,167.3684 C2036.5656,164.2121 2037.6281,163.0402 2038.6594,163.0402 C2039.2531,163.0402 2039.6281,163.3371 2040.05,163.8371 L2041.4719,162.2746 C2040.8,161.5246 2039.8313,160.884 2038.55,160.884 C2036.1281,160.884 2033.9875,162.8527 2033.9875,167.4777 C2033.9875,172.1184 2036.1281,173.9152 2038.5344,173.9152 Z " fill="#000000"/><text fill="#000000" font-family="Verdana" font-size="12" font-style="italic" lengthAdjust="spacing" textLength="101" x="2062.2" y="162.3082">&#171;Aggregate Root&#187;</text><text fill="#000000" font-family="Verdana" font-size="14" lengthAdjust="spacing" textLength="118" x="2053.7" y="182.0041">AIGenerationTask</text><line style="stroke:#424242;stroke-width:1.0;" x1="2011" x2="2189" y1="191.0361" y2="191.0361"/><text fill="#000000" font-family="Verdana" font-size="14" lengthAdjust="spacing" textLength="100" x="2016" y="211.2761">task_id: TaskId</text><text fill="#000000" font-family="Verdana" font-size="14" lengthAdjust="spacing" textLength="100" x="2016" y="231.548">user_id: UserId</text><text fill="#000000" font-family="Verdana" font-size="14" lengthAdjust="spacing" textLength="135" x="2016" y="251.8199">task_type: TaskType</text><text fill="#000000" font-family="Verdana" font-size="14" lengthAdjust="spacing" textLength="121" x="2016" y="272.0918">status: TaskStatus</text><text fill="#000000" font-family="Verdana" font-size="14" lengthAdjust="spacing" textLength="108" x="2016" y="292.3637">retry_count: u32</text><text fill="#000000" font-family="Verdana" font-size="14" lengthAdjust="spacing" textLength="168" x="2016" y="312.6356">result: GenerationResult?</text><line style="stroke:#424242;stroke-width:1.0;" x1="2011" x2="2189" y1="320.6676" y2="320.6676"/><text fill="#000000" font-family="Verdana" font-size="14" lengthAdjust="spacing" textLength="111" x="2016" y="340.9075">AI&#29983;&#25104;&#12479;&#12473;&#12463;&#31649;&#29702;</text><text fill="#000000" font-family="Verdana" font-size="14" lengthAdjust="spacing" textLength="70" x="2016" y="361.1794">&#38750;&#21516;&#26399;&#20966;&#29702;</text></g><!--class ChatSession--><g id="elem_ChatSession"><rect codeLine="144" fill="#FFE0B2" height="205.5514" id="ChatSession" rx="2.5" ry="2.5" style="stroke:#424242;stroke-width:1.0;" width="213" x="1761.5" y="153.3881"/><ellipse cx="1815.75" cy="177.2121" fill="#FFFFFF" rx="9" ry="9" style="stroke:#000000;stroke-width:1.0;"/><path d="M1815.9844,183.9152 C1817.1406,183.9152 1818.2344,183.4309 1819.0625,182.3996 L1817.6406,180.884 C1817.25,181.4309 1816.7813,181.7434 1816.2188,181.7434 C1815.0313,181.7434 1814.0156,180.6027 1814.0156,177.3684 C1814.0156,174.2121 1815.0781,173.0402 1816.1094,173.0402 C1816.7031,173.0402 1817.0781,173.3371 1817.5,173.8371 L1818.9219,172.2746 C1818.25,171.5246 1817.2813,170.884 1816,170.884 C1813.5781,170.884 1811.4375,172.8527 1811.4375,177.4777 C1811.4375,182.1184 1813.5781,183.9152 1815.9844,183.9152 Z " fill="#000000"/><text fill="#000000" font-family="Verdana" font-size="12" font-style="italic" lengthAdjust="spacing" textLength="101" x="1831.25" y="172.3082">&#171;Aggregate Root&#187;</text><text fill="#000000" font-family="Verdana" font-size="14" lengthAdjust="spacing" textLength="82" x="1840.75" y="192.0041">ChatSession</text><line style="stroke:#424242;stroke-width:1.0;" x1="1762.5" x2="1973.5" y1="201.0361" y2="201.0361"/><text fill="#000000" font-family="Verdana" font-size="14" lengthAdjust="spacing" textLength="142" x="1767.5" y="221.2761">session_id: SessionId</text><text fill="#000000" font-family="Verdana" font-size="14" lengthAdjust="spacing" textLength="100" x="1767.5" y="241.548">user_id: UserId</text><text fill="#000000" font-family="Verdana" font-size="14" lengthAdjust="spacing" textLength="101" x="1767.5" y="261.8199">item_id: ItemId</text><text fill="#000000" font-family="Verdana" font-size="14" lengthAdjust="spacing" textLength="201" x="1767.5" y="282.0918">messages: List&lt;ChatMessage&gt;</text><text fill="#000000" font-family="Verdana" font-size="14" lengthAdjust="spacing" textLength="139" x="1767.5" y="302.3637">started_at: DateTime</text><line style="stroke:#424242;stroke-width:1.0;" x1="1762.5" x2="1973.5" y1="310.3957" y2="310.3957"/><text fill="#000000" font-family="Verdana" font-size="14" lengthAdjust="spacing" textLength="98" x="1767.5" y="330.6356">&#28145;&#25496;&#12426;&#12481;&#12515;&#12483;&#12488;</text><text fill="#000000" font-family="Verdana" font-size="14" lengthAdjust="spacing" textLength="98" x="1767.5" y="350.9075">&#38917;&#30446;&#12372;&#12392;&#12398;&#23550;&#35441;</text></g><!--class UserProfile--><g id="elem_UserProfile"><rect codeLine="158" fill="#FFE0B2" height="225.8233" id="UserProfile" rx="2.5" ry="2.5" style="stroke:#424242;stroke-width:1.0;" width="166" x="2246" y="143.3881"/><ellipse cx="2277.45" cy="167.2121" fill="#FFFFFF" rx="9" ry="9" style="stroke:#000000;stroke-width:1.0;"/><path d="M2277.6844,173.9152 C2278.8406,173.9152 2279.9344,173.4309 2280.7625,172.3996 L2279.3406,170.884 C2278.95,171.4309 2278.4813,171.7434 2277.9188,171.7434 C2276.7313,171.7434 2275.7156,170.6027 2275.7156,167.3684 C2275.7156,164.2121 2276.7781,163.0402 2277.8094,163.0402 C2278.4031,163.0402 2278.7781,163.3371 2279.2,163.8371 L2280.6219,162.2746 C2279.95,161.5246 2278.9813,160.884 2277.7,160.884 C2275.2781,160.884 2273.1375,162.8527 2273.1375,167.4777 C2273.1375,172.1184 2275.2781,173.9152 2277.6844,173.9152 Z " fill="#000000"/><text fill="#000000" font-family="Verdana" font-size="12" font-style="italic" lengthAdjust="spacing" textLength="101" x="2291.55" y="162.3082">&#171;Aggregate Root&#187;</text><text fill="#000000" font-family="Verdana" font-size="14" lengthAdjust="spacing" textLength="73" x="2305.55" y="182.0041">UserProfile</text><line style="stroke:#424242;stroke-width:1.0;" x1="2247" x2="2411" y1="191.0361" y2="191.0361"/><text fill="#000000" font-family="Verdana" font-size="14" lengthAdjust="spacing" textLength="100" x="2252" y="211.2761">user_id: UserId</text><text fill="#000000" font-family="Verdana" font-size="14" lengthAdjust="spacing" textLength="83" x="2252" y="231.548">email: String</text><text fill="#000000" font-family="Verdana" font-size="14" lengthAdjust="spacing" textLength="140" x="2252" y="251.8199">display_name: String</text><text fill="#000000" font-family="Verdana" font-size="14" lengthAdjust="spacing" textLength="91" x="2252" y="272.0918">role: UserRole</text><text fill="#000000" font-family="Verdana" font-size="14" lengthAdjust="spacing" textLength="144" x="2252" y="292.3637">settings: UserSettings</text><text fill="#000000" font-family="Verdana" font-size="14" lengthAdjust="spacing" textLength="142" x="2252" y="312.6356">created_at: DateTime</text><line style="stroke:#424242;stroke-width:1.0;" x1="2247" x2="2411" y1="320.6676" y2="320.6676"/><text fill="#000000" font-family="Verdana" font-size="14" lengthAdjust="spacing" textLength="120" x="2252" y="340.9075">Firebase Auth&#36899;&#25658;</text><text fill="#000000" font-family="Verdana" font-size="14" lengthAdjust="spacing" textLength="154" x="2252" y="361.1794">&#20840;&#12467;&#12531;&#12486;&#12461;&#12473;&#12488;&#12363;&#12425;&#21442;&#29031;</text></g><!--reverse link LearningSession to SessionItem--><g id="link_LearningSession_SessionItem"><path codeLine="62" d="M384,381.7381 C384,428.1881 384,469.0481 384,511.7081 " fill="none" id="LearningSession-backto-SessionItem" style="stroke:#616161;stroke-width:1.0;"/><polygon fill="#616161" points="384,369.7381,380,375.7381,384,381.7381,388,375.7381,384,369.7381" style="stroke:#616161;stroke-width:1.0;"/><text fill="#000000" font-family="Verdana" font-size="13" lengthAdjust="spacing" textLength="53" x="385" y="437.4681">contains</text><text fill="#000000" font-family="Verdana" font-size="13" lengthAdjust="spacing" textLength="7" x="376.7867" y="392.3043">1</text><text fill="#000000" font-family="Verdana" font-size="13" lengthAdjust="spacing" textLength="36" x="346.2844" y="500.0888">1..100</text></g><!--reverse link VocabularyEntry to ItemSummary--><g id="link_VocabularyEntry_ItemSummary"><path codeLine="96" d="M647.5739,361.0674 C638.9139,419.2674 629.72,481.0581 622.11,532.1881 " fill="none" id="VocabularyEntry-backto-ItemSummary" style="stroke:#616161;stroke-width:1.0;"/><polygon fill="#616161" points="649.34,349.1981,644.5005,354.544,647.5739,361.0674,652.4134,355.7215,649.34,349.1981" style="stroke:#616161;stroke-width:1.0;"/><text fill="#000000" font-family="Verdana" font-size="13" lengthAdjust="spacing" textLength="46" x="639" y="437.4681">indexes</text><text fill="#000000" font-family="Verdana" font-size="13" lengthAdjust="spacing" textLength="7" x="641.0262" y="372.0938">1</text><text fill="#000000" font-family="Verdana" font-size="13" lengthAdjust="spacing" textLength="21" x="600.9406" y="520.6126">1..*</text></g><!--link VocabularyEntry to VocabularyItem--><g id="link_VocabularyEntry_VocabularyItem"><path codeLine="97" d="M708.09,349.1981 C726.55,386.7981 745.5453,425.4724 765.3153,465.7324 " fill="none" id="VocabularyEntry-to-VocabularyItem" style="stroke:#616161;stroke-width:1.0;stroke-dasharray:7.0,7.0;"/><polygon fill="#616161" points="767.96,471.1181,767.5834,461.2764,765.7561,466.63,760.4025,464.8027,767.96,471.1181" style="stroke:#616161;stroke-width:1.0;"/><text fill="#000000" font-family="Verdana" font-size="13" lengthAdjust="spacing" textLength="63" x="751" y="437.4681">references</text><text fill="#000000" font-family="Verdana" font-size="13" lengthAdjust="spacing" textLength="7" x="704.2742" y="372.0938">1</text><text fill="#000000" font-family="Verdana" font-size="13" lengthAdjust="spacing" textLength="21" x="742.441" y="459.7479">1..*</text></g><rect fill="none" height="200.4472" id="_legend" rx="7.5" ry="7.5" style="stroke:#000000;stroke-width:1.0;" width="204" x="2212" y="744.3881"/><text fill="#000000" font-family="Verdana" font-size="14" font-weight="bold" lengthAdjust="spacing" textLength="14" x="2220" y="767.628">&#33394;</text><text fill="#000000" font-family="Verdana" font-size="14" font-weight="bold" lengthAdjust="spacing" textLength="28" x="2240" y="767.628">&#31278;&#39006;</text><text fill="#000000" filter="url(#bf5ons6s3tgtf0)" font-family="Verdana" font-size="14" lengthAdjust="spacing" textLength="9" x="2217" y="787.8999">&#160;&#160;&#160;</text><text fill="#000000" font-family="Verdana" font-size="14" lengthAdjust="spacing" textLength="70" x="2240" y="787.8999">&#38598;&#32004;&#12523;&#12540;&#12488;</text><text fill="#000000" filter="url(#bf5ons6s3tgtf1)" font-family="Verdana" font-size="14" lengthAdjust="spacing" textLength="9" x="2217" y="808.1718">&#160;&#160;&#160;</text><text fill="#000000" font-family="Verdana" font-size="14" lengthAdjust="spacing" textLength="84" x="2240" y="808.1718">&#12456;&#12531;&#12486;&#12451;&#12486;&#12451;</text><text fill="#000000" filter="url(#bf5ons6s3tgtf2)" font-family="Verdana" font-size="14" lengthAdjust="spacing" textLength="9" x="2217" y="828.4438">&#160;&#160;&#160;</text><text fill="#000000" font-family="Verdana" font-size="14" lengthAdjust="spacing" textLength="98" x="2240" y="828.4438">&#20516;&#12458;&#12502;&#12472;&#12455;&#12463;&#12488;</text><text fill="#000000" filter="url(#bf5ons6s3tgtf3)" font-family="Verdana" font-size="14" lengthAdjust="spacing" textLength="9" x="2217" y="848.7157">&#160;&#160;&#160;</text><text fill="#000000" font-family="Verdana" font-size="14" lengthAdjust="spacing" textLength="56" x="2240" y="848.7157">&#38598;&#32004;&#12394;&#12375;</text><line style="stroke:#000000;stroke-width:1.0;" x1="2217" x2="2341" y1="751.3881" y2="751.3881"/><line style="stroke:#000000;stroke-width:1.0;" x1="2217" x2="2341" y1="771.66" y2="771.66"/><line style="stroke:#000000;stroke-width:1.0;" x1="2217" x2="2341" y1="791.9319" y2="791.9319"/><line style="stroke:#000000;stroke-width:1.0;" x1="2217" x2="2341" y1="812.2038" y2="812.2038"/><line style="stroke:#000000;stroke-width:1.0;" x1="2217" x2="2341" y1="832.4757" y2="832.4757"/><line style="stroke:#000000;stroke-width:1.0;" x1="2217" x2="2341" y1="852.7476" y2="852.7476"/><line style="stroke:#000000;stroke-width:1.0;" x1="2217" x2="2217" y1="751.3881" y2="852.7476"/><line style="stroke:#000000;stroke-width:1.0;" x1="2237" x2="2237" y1="751.3881" y2="852.7476"/><line style="stroke:#000000;stroke-width:1.0;" x1="2341" x2="2341" y1="751.3881" y2="852.7476"/><text fill="#000000" font-family="Verdana" font-size="14" lengthAdjust="spacing" textLength="3" x="2217" y="870.9876">&#160;</text><text fill="#000000" font-family="Verdana" font-size="14" font-weight="bold" lengthAdjust="spacing" textLength="28" x="2220" y="893.2595">&#35352;&#21495;</text><text fill="#000000" font-family="Verdana" font-size="14" font-weight="bold" lengthAdjust="spacing" textLength="28" x="2254" y="893.2595">&#24847;&#21619;</text><text fill="#000000" font-family="Verdana" font-size="14" lengthAdjust="spacing" textLength="20" x="2220" y="913.5314">* --</text><text fill="#000000" font-family="Verdana" font-size="14" lengthAdjust="spacing" textLength="154" x="2254" y="913.5314">&#12467;&#12531;&#12509;&#12472;&#12471;&#12519;&#12531;&#65288;&#25152;&#26377;&#65289;</text><text fill="#000000" font-family="Verdana" font-size="14" lengthAdjust="spacing" textLength="16" x="2220" y="933.8033">..&gt;</text><text fill="#000000" font-family="Verdana" font-size="14" lengthAdjust="spacing" textLength="98" x="2254" y="933.8033">&#21442;&#29031;&#65288;ID&#12398;&#12415;&#65289;</text><line style="stroke:#000000;stroke-width:1.0;" x1="2217" x2="2411" y1="877.0196" y2="877.0196"/><line style="stroke:#000000;stroke-width:1.0;" x1="2217" x2="2411" y1="897.2915" y2="897.2915"/><line style="stroke:#000000;stroke-width:1.0;" x1="2217" x2="2411" y1="917.5634" y2="917.5634"/><line style="stroke:#000000;stroke-width:1.0;" x1="2217" x2="2411" y1="937.8353" y2="937.8353"/><line style="stroke:#000000;stroke-width:1.0;" x1="2217" x2="2217" y1="877.0196" y2="937.8353"/><line style="stroke:#000000;stroke-width:1.0;" x1="2251" x2="2251" y1="877.0196" y2="937.8353"/><line style="stroke:#000000;stroke-width:1.0;" x1="2411" x2="2411" y1="877.0196" y2="937.8353"/><!--SRC=[jLXRKnD957xFhsZnmIghS0Lb7r8iLeH0iSLb5z2jhQ8gDIHDc7KoavhfeAnQHMP4WkZ2kgwNLL1M2Y88U5jHBl9Zcic49__2dkwU99EPmAuFLe3CzBdqET-vTNECZE0KHcb5ajKGaOc2KNHu6CS9ejO3QgrHymCrbwcvGQqSgaS7ZsywxsxGxBezaT_V_SEsPaAX4uYQgzHwGQqTU_qlvzEBqB447fPLZ28T7NtHZiX0DDRQszNRXuwtjqTFdsyiqwCz0vq3FvU8qORsflPecNWnqdKX6kiz_tsqTQ0iVoRQrDvKPkdfZGMtQ68VOTL7QkvHSv5QgwvXnYLPJKkwb49nHJ8CT3M4q7afVYcfQnarqQefcjxS74acTPoK24PzcaPQMlnkr9A9ge3T6F1wNQh5U55ICXZr3lq240DxqCbQGZqQAXi5Ga6tcP2c9x3E1T3niuti0wiHNTSkkulVDh1Fw7h80qCQjfAIk1OG06M4VVowpxUn3wosQohfbt_5gE4iKte2TM59LsKrYLg1Wg-GK4bxdPyogDfhIyxUNMg-fHRytAJc6WkNbQlZfeZebAJwiM78cefgX8On8sG8XfYS22ENkJF1AHa3wtpv0ZouQpB1AIECkcI3D9UuOQb5g28IoHXbDVtyjKJH2Kx49196RM32W9p2vpWbhgNI2gvDgw_dNuKdu_RYSiFfq_QVCvztSiNy6cIaFRDHj7O_xqnnbiOcEtUJMdFK-fjQKr1ClFgsgMLHSvDQom0Ky5s7tp907kjH8BMkbftb030c5u2qZWsirhPNKetBM3_4JLq7rIfi6eP0bby45NIcDTN0CG82CGPmvapZER_5F0nWIHy6ROd38wfpEZTSiFv7FFqkfYI3O7qiniA9mwXRlB9eOaud6f4Ky14aqaJOwlMn9WMSYsU8F8fZBbU5A8rY7H8zLXC4RnvSw2mkv9t5BUTUdZLHNWJEhVU5YMbEfjQysxMi5TPESukG9cuNPdcmKS7JNnnr3NNeP7qzV9yw1NbMLvKSOMO-WHPlY4gzgCMbeOmYwMF1MWtI1jNYohoz-yXPNt1cRnvTinLfQ8cWuj08OqRcOUECRjoCD5OKy0eAaEZm7IXOvav_9fM23KJ1ndKi-LFPYtXnU_TWSePcL_WW0Bid1P9WkhtxaRFy95-IqpWXIzw9uSzSpyPVKci9sP1IGt8o8n48HhLRHYojoqnX60rfckBViGAbM-2785bhsoz0zmWB-PYLsN89_hRoYa0VNv5OxokHe-9LqA0c3AxHLmF55s-TTwzu87Out7Vtz-OAjxESw4o_T5QdQVO1pIuvctauRuWkMG77ds7Un3zPLnMdC9BL1Bw2ZKF4JfrgAOdvm0v31ng6FgZ6iU4RRX4bgUao6KaTCUO2F9M11yrzbPhlM86RMzHwTdGvCMDAMhzspyII8RD-7XkMuaJJmsZOZPkEqvZme4FdowYUlYU3S_eeTDA4DEPfTYfu3BrmLCQNWS8QS5kfyPRcQn-dUiQhcnpztVMDGP3iLoPqJ359NoxOZ-VjoQs3XTkbOdtA43HV5VCvP_q1pnGUiXzq3O0250E1ybC6rOFnDuKx3se58t3yOcYh6g1Vvxoxvxo1P5rf_R6l7roI4dnuGsAlWaRtgBm2oGmZdnlwY6k7vrsU-vl2RZW1r279G3qDtl876rbtOSK7DZ3bg5jBOAKSxpP9LlX8CogiOiX0d4iUkgNWut31tj- -7_GOvbALhTbfQauvzvuMShDSo5u7-y7fZpHxP__37NjngZ2tiB_zNdXQGJ_IYJe1tAJE-qem1hNfWsgaq_ddjJsRExem8fqTMCL2Ta0oBXrU5WIeFDKPsn4bmVd8M1eBpW5ugifOjkZ9Lnsp3kkh1q0yey1xnRO-lb9r5WG7EPeyUs7WR8Yvoca7S_FsxEt2awVsv99Ogne9hICI-GgduS3f2QGWHgMkpdRj5aijXnw5gqwxcwyBlpsavYrgPQdrd0rSAoVyUpRXF5wdsNiqomz06v-ABrvNSeRP5SmKx-gWIgqbNZpl-T-ZSiIjWs4PBhM7ebKB4vo2ql8FIRWYZyLKAOMh2BgcO27R1qyk_eG0sH3B_UxR_pgijCiw7f8Ck3bdoCZ1-FF2x9QekObyhK9bbMdFcCx4SWL2Ut9X_zDqIC59h2QGBYT7212lVOUAKs_ObvDVFrYOHzVOOlCGG1pstILROB_cRnYbvLhflW_TcDr7SbunxqstIeQQ-PAbpyLVhrZmnbibR8ylKXFEllUh_l7WaGzUVciPp7iH5tETpp-qPpRPK-76ZFtxMw4HdGJW4RDOO3l7DtKlMz2p2rFZXITJq9vTTdPU01Cvua3kR6EzChid601k0NheNm00]--></g></svg>