<?xml version="1.0" encoding="us-ascii" standalone="no"?><svg xmlns="http://www.w3.org/2000/svg" xmlns:xlink="http://www.w3.org/1999/xlink" contentStyleType="text/css" height="978px" preserveAspectRatio="none" style="width:1245px;height:978px;background:#FFFFFF;" version="1.1" viewBox="0 0 1245 978" width="1245px" zoomAndPan="magnify"><defs/><g><text fill="#000000" font-family="Verdana" font-size="22" font-weight="bold" lengthAdjust="spacing" textLength="351" x="442.5" y="40.5201">Effect &#12503;&#12525;&#12472;&#12455;&#12463;&#12488; - &#38598;&#32004;&#38291;&#12398;&#38306;&#20418;</text><!--class UserProfile--><g id="elem_UserProfile"><rect codeLine="18" fill="#E3F2FD" height="127.3596" id="UserProfile" rx="2.5" ry="2.5" style="stroke:#1976D2;stroke-width:1.0;" width="112" x="417" y="322.8561"/><ellipse cx="434.95" cy="337.9921" fill="#FFFFFF" rx="9" ry="9" style="stroke:#000000;stroke-width:1.0;"/><path d="M435.1844,344.6952 C436.3406,344.6952 437.4344,344.2108 438.2625,343.1796 L436.8406,341.6639 C436.45,342.2108 435.9813,342.5233 435.4188,342.5233 C434.2313,342.5233 433.2156,341.3827 433.2156,338.1483 C433.2156,334.9921 434.2781,333.8202 435.3094,333.8202 C435.9031,333.8202 436.2781,334.1171 436.7,334.6171 L438.1219,333.0546 C437.45,332.3046 436.4813,331.6639 435.2,331.6639 C432.7781,331.6639 430.6375,333.6327 430.6375,338.2577 C430.6375,342.8983 432.7781,344.6952 435.1844,344.6952 Z " fill="#000000"/><text fill="#0D47A1" font-family="Verdana" font-size="14" lengthAdjust="spacing" textLength="73" x="448.05" y="344.096">UserProfile</text><line style="stroke:#1976D2;stroke-width:1.0;" x1="418" x2="528" y1="353.128" y2="353.128"/><text fill="#000000" font-family="Verdana" font-size="14" lengthAdjust="spacing" textLength="98" x="423" y="373.3679">&#171;User Context&#187;</text><text fill="#000000" font-family="Verdana" font-size="14" lengthAdjust="spacing" textLength="100" x="423" y="393.6399">user_id: UserId</text><text fill="#000000" font-family="Verdana" font-size="14" lengthAdjust="spacing" textLength="83" x="423" y="413.9118">email: String</text><text fill="#000000" font-family="Verdana" font-size="14" lengthAdjust="spacing" textLength="91" x="423" y="434.1837">role: UserRole</text><line style="stroke:#1976D2;stroke-width:1.0;" x1="418" x2="528" y1="442.2157" y2="442.2157"/></g><!--class VocabularyItem--><g id="elem_VocabularyItem"><rect codeLine="25" fill="#E3F2FD" height="127.3596" id="VocabularyItem" rx="2.5" ry="2.5" style="stroke:#1976D2;stroke-width:1.0;" width="163" x="564.5" y="322.8561"/><ellipse cx="591.9" cy="337.9921" fill="#FFFFFF" rx="9" ry="9" style="stroke:#000000;stroke-width:1.0;"/><path d="M592.1344,344.6952 C593.2906,344.6952 594.3844,344.2108 595.2125,343.1796 L593.7906,341.6639 C593.4,342.2108 592.9313,342.5233 592.3688,342.5233 C591.1813,342.5233 590.1656,341.3827 590.1656,338.1483 C590.1656,334.9921 591.2281,333.8202 592.2594,333.8202 C592.8531,333.8202 593.2281,334.1171 593.65,334.6171 L595.0719,333.0546 C594.4,332.3046 593.4313,331.6639 592.15,331.6639 C589.7281,331.6639 587.5875,333.6327 587.5875,338.2577 C587.5875,342.8983 589.7281,344.6952 592.1344,344.6952 Z " fill="#000000"/><text fill="#0D47A1" font-family="Verdana" font-size="14" lengthAdjust="spacing" textLength="103" x="607.1" y="344.096">VocabularyItem</text><line style="stroke:#1976D2;stroke-width:1.0;" x1="565.5" x2="726.5" y1="353.128" y2="353.128"/><text fill="#000000" font-family="Verdana" font-size="14" lengthAdjust="spacing" textLength="141" x="570.5" y="373.3679">&#171;Vocabulary Context&#187;</text><text fill="#000000" font-family="Verdana" font-size="14" lengthAdjust="spacing" textLength="101" x="570.5" y="393.6399">item_id: ItemId</text><text fill="#000000" font-family="Verdana" font-size="14" lengthAdjust="spacing" textLength="99" x="570.5" y="413.9118">spelling: String</text><text fill="#000000" font-family="Verdana" font-size="14" lengthAdjust="spacing" textLength="151" x="570.5" y="434.1837">disambiguation: String</text><line style="stroke:#1976D2;stroke-width:1.0;" x1="565.5" x2="726.5" y1="442.2157" y2="442.2157"/></g><!--class UserItemRecord--><g id="elem_UserItemRecord"><rect codeLine="33" fill="#E3F2FD" height="127.3596" id="UserItemRecord" rx="2.5" ry="2.5" style="stroke:#1976D2;stroke-width:1.0;" width="139" x="193.5" y="529.8561"/><ellipse cx="208.75" cy="544.9921" fill="#FFFFFF" rx="9" ry="9" style="stroke:#000000;stroke-width:1.0;"/><path d="M208.9844,551.6952 C210.1406,551.6952 211.2344,551.2108 212.0625,550.1796 L210.6406,548.6639 C210.25,549.2108 209.7813,549.5233 209.2188,549.5233 C208.0313,549.5233 207.0156,548.3827 207.0156,545.1483 C207.0156,541.9921 208.0781,540.8202 209.1094,540.8202 C209.7031,540.8202 210.0781,541.1171 210.5,541.6171 L211.9219,540.0546 C211.25,539.3046 210.2813,538.6639 209,538.6639 C206.5781,538.6639 204.4375,540.6327 204.4375,545.2577 C204.4375,549.8983 206.5781,551.6952 208.9844,551.6952 Z " fill="#000000"/><text fill="#0D47A1" font-family="Verdana" font-size="14" lengthAdjust="spacing" textLength="106" x="221.25" y="551.096">UserItemRecord</text><line style="stroke:#1976D2;stroke-width:1.0;" x1="194.5" x2="331.5" y1="560.128" y2="560.128"/><text fill="#000000" font-family="Verdana" font-size="14" lengthAdjust="spacing" textLength="127" x="199.5" y="580.3679">&#171;Learning Context&#187;</text><text fill="#000000" font-family="Verdana" font-size="14" lengthAdjust="spacing" textLength="100" x="199.5" y="600.6399">user_id: UserId</text><text fill="#000000" font-family="Verdana" font-size="14" lengthAdjust="spacing" textLength="101" x="199.5" y="620.9118">item_id: ItemId</text><line style="stroke:#1976D2;stroke-width:1.0;" x1="194.5" x2="331.5" y1="628.9438" y2="628.9438"/><text fill="#000000" font-family="Verdana" font-size="14" lengthAdjust="spacing" textLength="56" x="199.5" y="649.1837">UI&#34920;&#31034;&#29992;</text></g><!--class ItemLearningRecord--><g id="elem_ItemLearningRecord"><rect codeLine="41" fill="#E3F2FD" height="127.3596" id="ItemLearningRecord" rx="2.5" ry="2.5" style="stroke:#1976D2;stroke-width:1.0;" width="163" x="523.5" y="529.8561"/><ellipse cx="536.5" cy="544.9921" fill="#FFFFFF" rx="9" ry="9" style="stroke:#000000;stroke-width:1.0;"/><path d="M536.7344,551.6952 C537.8906,551.6952 538.9844,551.2108 539.8125,550.1796 L538.3906,548.6639 C538,549.2108 537.5313,549.5233 536.9688,549.5233 C535.7813,549.5233 534.7656,548.3827 534.7656,545.1483 C534.7656,541.9921 535.8281,540.8202 536.8594,540.8202 C537.4531,540.8202 537.8281,541.1171 538.25,541.6171 L539.6719,540.0546 C539,539.3046 538.0313,538.6639 536.75,538.6639 C534.3281,538.6639 532.1875,540.6327 532.1875,545.2577 C532.1875,549.8983 534.3281,551.6952 536.7344,551.6952 Z " fill="#000000"/><text fill="#0D47A1" font-family="Verdana" font-size="14" lengthAdjust="spacing" textLength="135" x="548.5" y="551.096">ItemLearningRecord</text><line style="stroke:#1976D2;stroke-width:1.0;" x1="524.5" x2="685.5" y1="560.128" y2="560.128"/><text fill="#000000" font-family="Verdana" font-size="14" lengthAdjust="spacing" textLength="141" x="529.5" y="580.3679">&#171;Learning Algorithm&#187;</text><text fill="#000000" font-family="Verdana" font-size="14" lengthAdjust="spacing" textLength="100" x="529.5" y="600.6399">user_id: UserId</text><text fill="#000000" font-family="Verdana" font-size="14" lengthAdjust="spacing" textLength="101" x="529.5" y="620.9118">item_id: ItemId</text><line style="stroke:#1976D2;stroke-width:1.0;" x1="524.5" x2="685.5" y1="628.9438" y2="628.9438"/><text fill="#000000" font-family="Verdana" font-size="14" lengthAdjust="spacing" textLength="126" x="529.5" y="649.1837">&#12450;&#12523;&#12468;&#12522;&#12474;&#12512;&#35336;&#31639;&#29992;</text></g><!--class LearningSession--><g id="elem_LearningSession"><rect codeLine="50" fill="#E3F2FD" height="127.3596" id="LearningSession" rx="2.5" ry="2.5" style="stroke:#1976D2;stroke-width:1.0;" width="154" x="1084" y="529.8561"/><ellipse cx="1104.2" cy="544.9921" fill="#FFFFFF" rx="9" ry="9" style="stroke:#000000;stroke-width:1.0;"/><path d="M1104.4344,551.6952 C1105.5906,551.6952 1106.6844,551.2108 1107.5125,550.1796 L1106.0906,548.6639 C1105.7,549.2108 1105.2313,549.5233 1104.6688,549.5233 C1103.4813,549.5233 1102.4656,548.3827 1102.4656,545.1483 C1102.4656,541.9921 1103.5281,540.8202 1104.5594,540.8202 C1105.1531,540.8202 1105.5281,541.1171 1105.95,541.6171 L1107.3719,540.0546 C1106.7,539.3046 1105.7313,538.6639 1104.45,538.6639 C1102.0281,538.6639 1099.8875,540.6327 1099.8875,545.2577 C1099.8875,549.8983 1102.0281,551.6952 1104.4344,551.6952 Z " fill="#000000"/><text fill="#0D47A1" font-family="Verdana" font-size="14" lengthAdjust="spacing" textLength="110" x="1117.8" y="551.096">LearningSession</text><line style="stroke:#1976D2;stroke-width:1.0;" x1="1085" x2="1237" y1="560.128" y2="560.128"/><text fill="#000000" font-family="Verdana" font-size="14" lengthAdjust="spacing" textLength="127" x="1090" y="580.3679">&#171;Learning Context&#187;</text><text fill="#000000" font-family="Verdana" font-size="14" lengthAdjust="spacing" textLength="142" x="1090" y="600.6399">session_id: SessionId</text><text fill="#000000" font-family="Verdana" font-size="14" lengthAdjust="spacing" textLength="100" x="1090" y="620.9118">user_id: UserId</text><text fill="#000000" font-family="Verdana" font-size="14" lengthAdjust="spacing" textLength="127" x="1090" y="641.1837">items: List&lt;ItemId&gt;</text><line style="stroke:#1976D2;stroke-width:1.0;" x1="1085" x2="1237" y1="649.2157" y2="649.2157"/></g><!--class AIGenerationTask--><g id="elem_AIGenerationTask"><rect codeLine="57" fill="#E3F2FD" height="127.3596" id="AIGenerationTask" rx="2.5" ry="2.5" style="stroke:#1976D2;stroke-width:1.0;" width="146" x="12" y="529.8561"/><ellipse cx="25" cy="544.9921" fill="#FFFFFF" rx="9" ry="9" style="stroke:#000000;stroke-width:1.0;"/><path d="M25.2344,551.6952 C26.3906,551.6952 27.4844,551.2108 28.3125,550.1796 L26.8906,548.6639 C26.5,549.2108 26.0313,549.5233 25.4688,549.5233 C24.2813,549.5233 23.2656,548.3827 23.2656,545.1483 C23.2656,541.9921 24.3281,540.8202 25.3594,540.8202 C25.9531,540.8202 26.3281,541.1171 26.75,541.6171 L28.1719,540.0546 C27.5,539.3046 26.5313,538.6639 25.25,538.6639 C22.8281,538.6639 20.6875,540.6327 20.6875,545.2577 C20.6875,549.8983 22.8281,551.6952 25.2344,551.6952 Z " fill="#000000"/><text fill="#0D47A1" font-family="Verdana" font-size="14" lengthAdjust="spacing" textLength="118" x="37" y="551.096">AIGenerationTask</text><line style="stroke:#1976D2;stroke-width:1.0;" x1="13" x2="157" y1="560.128" y2="560.128"/><text fill="#000000" font-family="Verdana" font-size="14" lengthAdjust="spacing" textLength="103" x="18" y="580.3679">&#171;AI Integration&#187;</text><text fill="#000000" font-family="Verdana" font-size="14" lengthAdjust="spacing" textLength="100" x="18" y="600.6399">task_id: TaskId</text><text fill="#000000" font-family="Verdana" font-size="14" lengthAdjust="spacing" textLength="100" x="18" y="620.9118">user_id: UserId</text><text fill="#000000" font-family="Verdana" font-size="14" lengthAdjust="spacing" textLength="109" x="18" y="641.1837">entry_id: EntryId</text><line style="stroke:#1976D2;stroke-width:1.0;" x1="13" x2="157" y1="649.2157" y2="649.2157"/></g><!--class ChatSession--><g id="elem_ChatSession"><rect codeLine="64" fill="#E3F2FD" height="127.3596" id="ChatSession" rx="2.5" ry="2.5" style="stroke:#1976D2;stroke-width:1.0;" width="154" x="895" y="529.8561"/><ellipse cx="927.8" cy="544.9921" fill="#FFFFFF" rx="9" ry="9" style="stroke:#000000;stroke-width:1.0;"/><path d="M928.0344,551.6952 C929.1906,551.6952 930.2844,551.2108 931.1125,550.1796 L929.6906,548.6639 C929.3,549.2108 928.8313,549.5233 928.2688,549.5233 C927.0813,549.5233 926.0656,548.3827 926.0656,545.1483 C926.0656,541.9921 927.1281,540.8202 928.1594,540.8202 C928.7531,540.8202 929.1281,541.1171 929.55,541.6171 L930.9719,540.0546 C930.3,539.3046 929.3313,538.6639 928.05,538.6639 C925.6281,538.6639 923.4875,540.6327 923.4875,545.2577 C923.4875,549.8983 925.6281,551.6952 928.0344,551.6952 Z " fill="#000000"/><text fill="#0D47A1" font-family="Verdana" font-size="14" lengthAdjust="spacing" textLength="82" x="944.2" y="551.096">ChatSession</text><line style="stroke:#1976D2;stroke-width:1.0;" x1="896" x2="1048" y1="560.128" y2="560.128"/><text fill="#000000" font-family="Verdana" font-size="14" lengthAdjust="spacing" textLength="103" x="901" y="580.3679">&#171;AI Integration&#187;</text><text fill="#000000" font-family="Verdana" font-size="14" lengthAdjust="spacing" textLength="142" x="901" y="600.6399">session_id: SessionId</text><text fill="#000000" font-family="Verdana" font-size="14" lengthAdjust="spacing" textLength="100" x="901" y="620.9118">user_id: UserId</text><text fill="#000000" font-family="Verdana" font-size="14" lengthAdjust="spacing" textLength="101" x="901" y="641.1837">item_id: ItemId</text><line style="stroke:#1976D2;stroke-width:1.0;" x1="896" x2="1048" y1="649.2157" y2="649.2157"/></g><!--class VocabularyEntry--><g id="elem_VocabularyEntry"><rect codeLine="71" fill="#E3F2FD" height="107.0876" id="VocabularyEntry" rx="2.5" ry="2.5" style="stroke:#1976D2;stroke-width:1.0;" width="153" x="133.5" y="99.8561"/><ellipse cx="154.6" cy="114.9921" fill="#FFFFFF" rx="9" ry="9" style="stroke:#000000;stroke-width:1.0;"/><path d="M154.8344,121.6952 C155.9906,121.6952 157.0844,121.2108 157.9125,120.1796 L156.4906,118.6639 C156.1,119.2108 155.6313,119.5233 155.0688,119.5233 C153.8813,119.5233 152.8656,118.3827 152.8656,115.1483 C152.8656,111.9921 153.9281,110.8202 154.9594,110.8202 C155.5531,110.8202 155.9281,111.1171 156.35,111.6171 L157.7719,110.0546 C157.1,109.3046 156.1313,108.6639 154.85,108.6639 C152.4281,108.6639 150.2875,110.6327 150.2875,115.2577 C150.2875,119.8983 152.4281,121.6952 154.8344,121.6952 Z " fill="#000000"/><text fill="#0D47A1" font-family="Verdana" font-size="14" lengthAdjust="spacing" textLength="107" x="168.4" y="121.096">VocabularyEntry</text><line style="stroke:#1976D2;stroke-width:1.0;" x1="134.5" x2="285.5" y1="130.128" y2="130.128"/><text fill="#000000" font-family="Verdana" font-size="14" lengthAdjust="spacing" textLength="141" x="139.5" y="150.3679">&#171;Vocabulary Context&#187;</text><text fill="#000000" font-family="Verdana" font-size="14" lengthAdjust="spacing" textLength="109" x="139.5" y="170.6399">entry_id: EntryId</text><text fill="#000000" font-family="Verdana" font-size="14" lengthAdjust="spacing" textLength="99" x="139.5" y="190.9118">spelling: String</text><line style="stroke:#1976D2;stroke-width:1.0;" x1="134.5" x2="285.5" y1="198.9438" y2="198.9438"/></g><!--class Progress--><g id="elem_Progress"><rect codeLine="78" fill="#E3F2FD" height="107.0876" id="Progress" rx="2.5" ry="2.5" style="stroke:#1976D2;stroke-width:1.0;" width="139" x="535.5" y="736.8561"/><ellipse cx="548.5" cy="751.9921" fill="#FFFFFF" rx="9" ry="9" style="stroke:#000000;stroke-width:1.0;"/><path d="M548.7344,758.6952 C549.8906,758.6952 550.9844,758.2108 551.8125,757.1796 L550.3906,755.6639 C550,756.2108 549.5313,756.5233 548.9688,756.5233 C547.7813,756.5233 546.7656,755.3827 546.7656,752.1483 C546.7656,748.9921 547.8281,747.8202 548.8594,747.8202 C549.4531,747.8202 549.8281,748.1171 550.25,748.6171 L551.6719,747.0546 C551,746.3046 550.0313,745.6639 548.75,745.6639 C546.3281,745.6639 544.1875,747.6327 544.1875,752.2577 C544.1875,756.8983 546.3281,758.6952 548.7344,758.6952 Z " fill="#000000"/><text fill="#0D47A1" font-family="Verdana" font-size="14" lengthAdjust="spacing" textLength="111" x="560.5" y="758.096">Progress Context</text><line style="stroke:#1976D2;stroke-width:1.0;" x1="536.5" x2="673.5" y1="767.128" y2="767.128"/><text fill="#000000" font-family="Verdana" font-size="14" lengthAdjust="spacing" textLength="81" x="541.5" y="787.3679">&#171;Read Only&#187;</text><text fill="#000000" font-family="Verdana" font-size="14" lengthAdjust="spacing" textLength="112" x="541.5" y="807.6399">&#12452;&#12505;&#12531;&#12488;&#12363;&#12425;&#29983;&#25104;</text><text fill="#000000" font-family="Verdana" font-size="14" lengthAdjust="spacing" textLength="56" x="541.5" y="827.9118">&#38598;&#32004;&#12394;&#12375;</text><line style="stroke:#1976D2;stroke-width:1.0;" x1="536.5" x2="673.5" y1="835.9438" y2="835.9438"/></g><g id="elem_GMN25"><path d="M371.5,129.3561 L371.5,177.0041 A0,0 0 0 0 371.5,177.0041 L469,177.0041 L473,322.8461 L477,177.0041 L574.5,177.0041 A0,0 0 0 0 574.5,177.0041 L574.5,139.3561 L564.5,129.3561 L371.5,129.3561 A0,0 0 0 0 371.5,129.3561 " fill="#FFF9C4" style="stroke:#F57C00;stroke-width:1.0;"/><path d="M564.5,129.3561 L564.5,139.3561 L574.5,139.3561 L564.5,129.3561 " fill="#FFF9C4" style="stroke:#F57C00;stroke-width:1.0;"/><text fill="#000000" font-family="Verdana" font-size="13" lengthAdjust="spacing" textLength="156" x="377.5" y="149.4361">&#20840;&#38598;&#32004;&#12363;&#12425;&#21442;&#29031;&#12373;&#12428;&#12427;&#20013;&#24515;</text><text fill="#000000" font-family="Verdana" font-size="13" lengthAdjust="spacing" textLength="182" x="377.5" y="168.2601">&#21066;&#38500;&#26178;&#12399;&#20840;&#12467;&#12531;&#12486;&#12461;&#12473;&#12488;&#12395;&#36890;&#30693;</text></g><g id="elem_GMN28"><path d="M368,560.3561 L368,589.3561 L332.61,593.3561 L368,597.3561 L368,626.8282 A0,0 0 0 0 368,626.8282 L488,626.8282 A0,0 0 0 0 488,626.8282 L488,570.3561 L478,560.3561 L368,560.3561 A0,0 0 0 0 368,560.3561 " fill="#FFF9C4" style="stroke:#F57C00;stroke-width:1.0;"/><path d="M478,560.3561 L478,570.3561 L488,570.3561 L478,560.3561 " fill="#FFF9C4" style="stroke:#F57C00;stroke-width:1.0;"/><text fill="#000000" font-family="Verdana" font-size="13" lengthAdjust="spacing" textLength="78" x="374" y="580.4361">&#36012;&#21209;&#65306;UI&#34920;&#31034;</text><text fill="#000000" font-family="Verdana" font-size="13" lengthAdjust="spacing" textLength="99" x="374" y="599.2601">- &#12510;&#12473;&#12479;&#12522;&#12540;&#29366;&#24907;</text><text fill="#000000" font-family="Verdana" font-size="13" lengthAdjust="spacing" textLength="86" x="374" y="618.0842">- &#23398;&#32722;&#32113;&#35336;&#34920;&#31034;</text></g><g id="elem_GMN31"><path d="M722,560.3561 L722,589.3561 L686.74,593.3561 L722,597.3561 L722,626.8282 A0,0 0 0 0 722,626.8282 L860,626.8282 A0,0 0 0 0 860,626.8282 L860,570.3561 L850,560.3561 L722,560.3561 A0,0 0 0 0 722,560.3561 " fill="#FFF9C4" style="stroke:#F57C00;stroke-width:1.0;"/><path d="M850,560.3561 L850,570.3561 L860,570.3561 L850,560.3561 " fill="#FFF9C4" style="stroke:#F57C00;stroke-width:1.0;"/><text fill="#000000" font-family="Verdana" font-size="13" lengthAdjust="spacing" textLength="117" x="728" y="580.4361">&#36012;&#21209;&#65306;&#12450;&#12523;&#12468;&#12522;&#12474;&#12512;</text><text fill="#000000" font-family="Verdana" font-size="13" lengthAdjust="spacing" textLength="65" x="728" y="599.2601">- SM-2&#35336;&#31639;</text><text fill="#000000" font-family="Verdana" font-size="13" lengthAdjust="spacing" textLength="99" x="728" y="618.0842">- &#27425;&#22238;&#20986;&#38988;&#26085;&#27770;&#23450;</text></g><g id="elem_GMN34"><path d="M503.5,904.8561 L503.5,971.3282 A0,0 0 0 0 503.5,971.3282 L706.5,971.3282 A0,0 0 0 0 706.5,971.3282 L706.5,914.8561 L696.5,904.8561 L609,904.8561 L605,843.8861 L601,904.8561 L503.5,904.8561 A0,0 0 0 0 503.5,904.8561 " fill="#FFF9C4" style="stroke:#F57C00;stroke-width:1.0;"/><path d="M696.5,904.8561 L696.5,914.8561 L706.5,914.8561 L696.5,904.8561 " fill="#FFF9C4" style="stroke:#F57C00;stroke-width:1.0;"/><text fill="#000000" font-family="Verdana" font-size="13" lengthAdjust="spacing" textLength="145" x="509.5" y="924.9361">&#32020;&#31883;&#12394;CQRS Read&#12514;&#12487;&#12523;</text><text fill="#000000" font-family="Verdana" font-size="13" lengthAdjust="spacing" textLength="182" x="509.5" y="943.7601">&#20182;&#12398;&#38598;&#32004;&#12398;&#12452;&#12505;&#12531;&#12488;&#12434;&#38598;&#32004;&#12375;&#12390;</text><text fill="#000000" font-family="Verdana" font-size="13" lengthAdjust="spacing" textLength="91" x="509.5" y="962.5842">&#32113;&#35336;&#24773;&#22577;&#12434;&#29983;&#25104;</text></g><g id="elem_N1"><path d="M610,63.8561 L610,243.2723 L924,243.2723 L924,73.8561 L914,63.8561 L610,63.8561 " fill="#FFF9C4" style="stroke:#F57C00;stroke-width:1.0;"/><path d="M914,63.8561 L914,73.8561 L924,73.8561 L914,63.8561 " fill="#FFF9C4" style="stroke:#F57C00;stroke-width:1.0;"/><text fill="#000000" font-family="Verdana" font-size="13" font-weight="bold" lengthAdjust="spacing" textLength="117" x="616" y="83.9361">&#38598;&#32004;&#38291;&#12398;&#21442;&#29031;&#12523;&#12540;&#12523;</text><text fill="#000000" font-family="Verdana" font-size="13" lengthAdjust="spacing" textLength="143" x="616" y="102.7601">&#12539;&#38598;&#32004;&#38291;&#12399;ID&#12398;&#12415;&#12391;&#21442;&#29031;</text><text fill="#000000" font-family="Verdana" font-size="13" lengthAdjust="spacing" textLength="195" x="616" y="121.5842">&#12539;&#30452;&#25509;&#12398;&#12458;&#12502;&#12472;&#12455;&#12463;&#12488;&#21442;&#29031;&#12399;&#31105;&#27490;</text><text fill="#000000" font-family="Verdana" font-size="13" lengthAdjust="spacing" textLength="208" x="616" y="140.4082">&#12539;&#12452;&#12505;&#12531;&#12488;&#39366;&#21205;&#12391;&#32080;&#26524;&#25972;&#21512;&#24615;&#12434;&#20445;&#12388;</text><text fill="#000000" font-family="Verdana" font-size="13" lengthAdjust="spacing" textLength="3" x="616" y="159.2322">&#160;</text><text fill="#000000" font-family="Verdana" font-size="13" font-weight="bold" lengthAdjust="spacing" textLength="147" x="616" y="178.0562">User &#215; Item &#12398;&#20998;&#38626;&#29702;&#30001;</text><text fill="#000000" font-family="Verdana" font-size="13" lengthAdjust="spacing" textLength="202" x="616" y="196.8802">&#12539;UserItemRecord&#65306;UI&#35201;&#27714;&#12391;&#22793;&#26356;</text><text fill="#000000" font-family="Verdana" font-size="13" lengthAdjust="spacing" textLength="293" x="616" y="215.7042">&#12539;ItemLearningRecord&#65306;&#12450;&#12523;&#12468;&#12522;&#12474;&#12512;&#22793;&#26356;&#12391;&#22793;&#26356;</text><text fill="#000000" font-family="Verdana" font-size="13" lengthAdjust="spacing" textLength="221" x="616" y="234.5283">&#12539;&#36012;&#21209;&#12364;&#26126;&#30906;&#12395;&#30064;&#12394;&#12427;&#12383;&#12417;&#20998;&#38626;&#12399;&#22949;&#24403;</text></g><!--reverse link UserProfile to UserItemRecord--><g id="link_UserProfile_UserItemRecord"><path codeLine="85" d="M411.1727,403.1161 C369.4227,416.4061 320.04,438.8161 288,479.8561 C276.92,494.0461 270.54,512.1661 266.92,529.6961 " fill="none" id="UserProfile-backto-UserItemRecord" style="stroke:#000000;stroke-width:1.0;stroke-dasharray:7.0,7.0;"/><polygon fill="#000000" points="416.89,401.2961,407.1007,400.2145,412.1256,402.8127,409.5273,407.8376,416.89,401.2961" style="stroke:#000000;stroke-width:1.0;"/><text fill="#000000" font-family="Verdana" font-size="13" lengthAdjust="spacing" textLength="45" x="289" y="495.9361">user_id</text></g><!--reverse link UserProfile to ItemLearningRecord--><g id="link_UserProfile_ItemLearningRecord"><path codeLine="86" d="M516.5678,455.0211 C532.8678,480.3411 548.4,504.4561 564.7,529.7661 " fill="none" id="UserProfile-backto-ItemLearningRecord" style="stroke:#000000;stroke-width:1.0;stroke-dasharray:7.0,7.0;"/><polygon fill="#000000" points="513.32,449.9761,514.8283,459.7088,516.0265,454.1803,521.555,455.3784,513.32,449.9761" style="stroke:#000000;stroke-width:1.0;"/><text fill="#000000" font-family="Verdana" font-size="13" lengthAdjust="spacing" textLength="45" x="543" y="495.9361">user_id</text></g><!--reverse link UserProfile to LearningSession--><g id="link_UserProfile_LearningSession"><path codeLine="87" d="M534.3615,443.7824 C540.0715,447.3924 540.93,447.3661 547,449.8561 C706.6,515.3461 765.59,442.4661 934,479.8561 C995.65,493.5461 1010.79,501.0761 1067,529.8561 C1072.58,532.7161 1078.24,535.8361 1083.86,539.1061 " fill="none" id="UserProfile-backto-LearningSession" style="stroke:#000000;stroke-width:1.0;stroke-dasharray:7.0,7.0;"/><polygon fill="#000000" points="529.29,440.5761,534.7597,448.7665,533.5162,443.248,539.0347,442.0046,529.29,440.5761" style="stroke:#000000;stroke-width:1.0;"/><text fill="#000000" font-family="Verdana" font-size="13" lengthAdjust="spacing" textLength="45" x="1003" y="495.9361">user_id</text></g><!--reverse link UserProfile to AIGenerationTask--><g id="link_UserProfile_AIGenerationTask"><path codeLine="88" d="M411.0363,403.8533 C358.5563,419.0333 284.86,443.8361 222,479.8561 C197.7,493.7761 173.36,512.0161 152.09,529.7461 " fill="none" id="UserProfile-backto-AIGenerationTask" style="stroke:#000000;stroke-width:1.0;stroke-dasharray:7.0,7.0;"/><polygon fill="#000000" points="416.8,402.1861,407.043,400.8444,411.9969,403.5754,409.2659,408.5294,416.8,402.1861" style="stroke:#000000;stroke-width:1.0;"/><text fill="#000000" font-family="Verdana" font-size="13" lengthAdjust="spacing" textLength="45" x="223" y="495.9361">user_id</text></g><!--reverse link UserProfile to ChatSession--><g id="link_UserProfile_ChatSession"><path codeLine="89" d="M534.2316,442.76 C539.9816,446.67 540.97,446.8761 547,449.8561 C602.48,477.2961 622.79,465.4961 683,479.8561 C770.03,500.6061 796.27,493.4661 878,529.8561 C883.64,532.3661 889.31,535.2061 894.93,538.2561 " fill="none" id="UserProfile-backto-ChatSession" style="stroke:#000000;stroke-width:1.0;stroke-dasharray:7.0,7.0;"/><polygon fill="#000000" points="529.27,439.3861,534.4631,447.7546,533.4046,442.1977,538.9616,441.1392,529.27,439.3861" style="stroke:#000000;stroke-width:1.0;"/><text fill="#000000" font-family="Verdana" font-size="13" lengthAdjust="spacing" textLength="45" x="786" y="495.9361">user_id</text></g><!--reverse link VocabularyItem to UserItemRecord--><g id="link_VocabularyItem_UserItemRecord"><path codeLine="92" d="M559.0478,443.4605 C553.2678,446.7305 552.7,446.9361 547,449.8561 C462.94,493.0261 432.73,484.1861 350,529.8561 C344.3,533.0061 338.53,536.4561 332.83,540.0761 " fill="none" id="VocabularyItem-backto-UserItemRecord" style="stroke:#000000;stroke-width:1.0;stroke-dasharray:7.0,7.0;"/><polygon fill="#000000" points="564.27,440.5061,554.4671,441.4563,559.9182,442.9681,558.4063,448.4192,564.27,440.5061" style="stroke:#000000;stroke-width:1.0;"/><text fill="#000000" font-family="Verdana" font-size="13" lengthAdjust="spacing" textLength="47" x="476" y="495.9361">item_id</text></g><!--reverse link VocabularyItem to ItemLearningRecord--><g id="link_VocabularyItem_ItemLearningRecord"><path codeLine="93" d="M632.302,455.8593 C627.232,481.1793 622.58,504.4561 617.52,529.7661 " fill="none" id="VocabularyItem-backto-ItemLearningRecord" style="stroke:#000000;stroke-width:1.0;stroke-dasharray:7.0,7.0;"/><polygon fill="#000000" points="633.48,449.9761,627.7908,458.0156,632.4983,454.8788,635.6351,459.5863,633.48,449.9761" style="stroke:#000000;stroke-width:1.0;"/><text fill="#000000" font-family="Verdana" font-size="13" lengthAdjust="spacing" textLength="47" x="627" y="495.9361">item_id</text></g><!--reverse link VocabularyItem to LearningSession--><g id="link_VocabularyItem_LearningSession"><path codeLine="94" d="M733.696,395.7138 C849.526,408.0938 1047.88,435.0061 1106,479.8561 C1122.35,492.4761 1134.14,511.2161 1142.5,529.8061 " fill="none" id="VocabularyItem-backto-LearningSession" style="stroke:#000000;stroke-width:1.0;stroke-dasharray:7.0,7.0;"/><polygon fill="#000000" points="727.73,395.0761,736.2539,400.0099,732.7017,395.6075,737.1041,392.0552,727.73,395.0761" style="stroke:#000000;stroke-width:1.0;"/><text fill="#000000" font-family="Verdana" font-size="13" lengthAdjust="spacing" textLength="47" x="1125" y="495.9361">item_id</text></g><!--reverse link VocabularyItem to ChatSession--><g id="link_VocabularyItem_ChatSession"><path codeLine="95" d="M733.2903,419.0106 C772.4803,434.9006 813.58,454.2661 852,479.8561 C873.39,494.1061 894.57,512.2361 913.05,529.7661 " fill="none" id="VocabularyItem-backto-ChatSession" style="stroke:#000000;stroke-width:1.0;stroke-dasharray:7.0,7.0;"/><polygon fill="#000000" points="727.73,416.7561,734.5675,423.8447,732.3636,418.6349,737.5735,416.431,727.73,416.7561" style="stroke:#000000;stroke-width:1.0;"/><text fill="#000000" font-family="Verdana" font-size="13" lengthAdjust="spacing" textLength="47" x="878" y="495.9361">item_id</text></g><!--reverse link VocabularyEntry to AIGenerationTask--><g id="link_VocabularyEntry_AIGenerationTask"><path codeLine="98" d="M193.2735,212.9558 C170.1235,294.0758 127.57,443.1961 102.85,529.7961 " fill="none" id="VocabularyEntry-backto-AIGenerationTask" style="stroke:#000000;stroke-width:1.0;stroke-dasharray:7.0,7.0;"/><polygon fill="#000000" points="194.92,207.1861,188.6038,214.7429,193.5479,211.9942,196.2966,216.9383,194.92,207.1861" style="stroke:#000000;stroke-width:1.0;"/><text fill="#000000" font-family="Verdana" font-size="13" lengthAdjust="spacing" textLength="51" x="161" y="392.4361">entry_id</text></g><!--reverse link VocabularyEntry to VocabularyItem--><g id="link_VocabularyEntry_VocabularyItem"><path codeLine="99" d="M297.033,210.9402 C318.393,224.0702 331.65,231.4461 354,242.8561 C436.7,285.0761 464.55,280.1361 547,322.8561 C552.68,325.8061 558.47,328.9661 564.24,332.2561 " fill="none" id="VocabularyEntry-backto-VocabularyItem" style="stroke:#000000;stroke-width:1.0;"/><polygon fill="#000000" points="286.81,204.6561,289.8268,211.2058,297.033,210.9402,294.0162,204.3905,286.81,204.6561" style="stroke:#000000;stroke-width:1.0;"/><text fill="#000000" font-family="Verdana" font-size="13" lengthAdjust="spacing" textLength="53" x="478" y="288.9361">contains</text><text fill="#000000" font-family="Verdana" font-size="13" lengthAdjust="spacing" textLength="7" x="294.4645" y="205.8029">1</text><text fill="#000000" font-family="Verdana" font-size="13" lengthAdjust="spacing" textLength="21" x="535.5997" y="324.1299">1..*</text></g><!--link UserItemRecord to Progress--><g id="link_UserItemRecord_Progress"><path codeLine="102" d="M332.68,645.7261 C338.48,649.5961 344.3,653.3461 350,656.8561 C410.78,694.2161 477.835,728.5505 529.945,753.9105 " fill="none" id="UserItemRecord-to-Progress" style="stroke:#000000;stroke-width:1.0;stroke-dasharray:7.0,7.0;"/><polygon fill="#000000" points="535.34,756.5361,528.9978,749.0011,530.8441,754.3481,525.4971,756.1945,535.34,756.5361" style="stroke:#000000;stroke-width:1.0;"/><text fill="#000000" font-family="Verdana" font-size="13" lengthAdjust="spacing" textLength="40" x="434" y="702.9361">events</text></g><!--link ItemLearningRecord to Progress--><g id="link_ItemLearningRecord_Progress"><path codeLine="103" d="M605,656.8561 C605,682.5961 605,706.0761 605,730.6861 " fill="none" id="ItemLearningRecord-to-Progress" style="stroke:#000000;stroke-width:1.0;stroke-dasharray:7.0,7.0;"/><polygon fill="#000000" points="605,736.6861,609,727.6861,605,731.6861,601,727.6861,605,736.6861" style="stroke:#000000;stroke-width:1.0;"/><text fill="#000000" font-family="Verdana" font-size="13" lengthAdjust="spacing" textLength="40" x="606" y="702.9361">events</text></g><!--link LearningSession to Progress--><g id="link_LearningSession_Progress"><path codeLine="104" d="M1083.85,648.2761 C1078.25,651.3661 1072.6,654.2661 1067,656.8561 C934.46,718.1361 773.1098,756.3511 680.5598,775.1611 " fill="none" id="LearningSession-to-Progress" style="stroke:#000000;stroke-width:1.0;stroke-dasharray:7.0,7.0;"/><polygon fill="#000000" points="674.68,776.3561,684.2964,778.4834,679.5798,775.3603,682.703,770.6437,674.68,776.3561" style="stroke:#000000;stroke-width:1.0;"/><text fill="#000000" font-family="Verdana" font-size="13" lengthAdjust="spacing" textLength="40" x="995" y="702.9361">events</text></g><!--SRC=[bLPjJzjM5FxkNt77FbIgb0nODrI4a5Y0ALBt1kk-Javo2HQEZMmp3KsJQdj0Q5YBA9016nJ4srfUHfjE7MNBX_sKYstoYR-mS- -rQyTncCg7a9pxtFESS-vppxdl6UEuXD6aB4gAO4Y6ZD7Gs1ZE6uZOLM8V4-iriGw8TKhiCagXniQiL_kfiVg4c2UDrPtBkYK8jn2n_Y9MdLYxn7xkdAnx__mkw1EICYbgOWdbnFn4KLEdb496bLKDlJ_C_YA8l2pgElf1GEYJE7Rem-7kuK6wece5hFdMhhiz7mzsWtLOLGpVrZbufsUWI_XHY3XML0Cd-uK0xcRknFqEVzIJwUoaFcwXozV7JjqcvY4ndn6hmXCNUAZtTQnzgQbZaipTz_LH2yf0DFXxexyVJ5DW-5Ogz39ijW0MN18bkHUD6fga5E6tfigOBu_0DqhAdN-ZviNSb2ngqra3btp_eR69HG84Ow5Gng9FOba6WWXHGTB5KaugJec6f2fl5rYMBEv_gsm_ecSQJvCkZE0yLCcFv1uMDGNs_q-shP6bKl1nFtkrVUZjddlBXs7651AuJUOQa8kg9XdZfNTZ8zOEA99ODMB36PuJ- -dLOTaxgVhi85ppDqZwyirgFFM0UHJhEXJjfjnr3c7qFfn5a1obtelkIRhHnmFj3uimaFqKArXZP_Irg4_ub0DPb0Mk8bzWX0QiCiSKreOAAuOspKn3z1lOtX9bnaMZEQq4ZdTBAbhw11sp46uMScky2L9cHmRthgXXcWVVxhDrnEqTIDH3C2SVmM81VQ78quoJzQirOh-4raRC2h7clUKjjxm8IrmBzEQRLKwR7NGUMzxC0MzwrnTblnBN5_D2j1tqfTFnUzCRLAq5c23yzk2u9DiZMwJK7XeLGuXAojS_Pvflh4Cbfkp3ax29MT-0Rqty1d1pGW4mAQ50SiqPSQssgMAmfGNVqTM1RgTIy3-TljqHR-6zA0-QX06hys4PoivvNBsiR_k3D5R3TBe_r2zmVmVikf1Gl6HWl6h9A8YdCVVprRu9MhzwTkJ-yaXWGzDG9v4w5XrqS2kScSFWOj3Rmkj9p1LYBS24v0EJmkOVDjPstJMBcAUmXLWlMRApn3gc3mLwsPut7gnxMti2LWfiI0kSLPEAuqR06vO2V5wzE78gQzSNwy40eIqUdYYR_jC3-hjzuJtyqvsfi1NdUD-hBtclpg3X-nlQSRLMDChNEaAO_z7FKjrybh2Vxj6six7fp9qtjXVSwfvxTWxFe3XZJZKCjKGfWtE0lLvjsNjHWUfdlXePHRH14HiOvu0KLgEJ2RuqTInhAR1NYRbFNR5iNNl6UNe6gtup2uE0esP2Sn_0ePr4JniwvUTTj4Fc-gCFFF-08Ntx0ZxxFiYnjcc_YO1EiuCqCBDEp0EEvn1le-O-scCnmz6iHf-HWMvElNtJFTxX-6XgZODPfx823hrNY-xch-vApLaiqwYjfSiw3EnTsCAZZJzVdF9iOsF7Mvprbi_2S9lLn4K4r6SMZNbttjseSLoh4X85mBV4zdB147C1Ykhjd8F4lPK_-DEHc5l4Cdbez4hixpb_FmdFvJy0]--></g></svg>