<?xml version="1.0" encoding="us-ascii" standalone="no"?><svg xmlns="http://www.w3.org/2000/svg" xmlns:xlink="http://www.w3.org/1999/xlink" contentStyleType="text/css" height="2092px" preserveAspectRatio="none" style="width:1072px;height:2092px;background:#FFFFFF;" version="1.1" viewBox="0 0 1072 2092" width="1072px" zoomAndPan="magnify"><defs/><g><text fill="#000000" font-family="Verdana" font-size="22" font-weight="bold" lengthAdjust="spacing" textLength="549" x="260" y="40.5201">Effect &#12503;&#12525;&#12472;&#12455;&#12463;&#12488; - &#23398;&#32722;&#12475;&#12483;&#12471;&#12519;&#12531;&#12398;&#12452;&#12505;&#12531;&#12488;&#12501;&#12525;&#12540;</text><rect fill="#FFFFFF" height="265.4161" style="stroke:#000000;stroke-width:1.0;" width="10" x="216" y="195.048"/><rect fill="#FFFFFF" height="116.2961" style="stroke:#000000;stroke-width:1.0;" width="10" x="380" y="246.696"/><rect fill="#FFFFFF" height="116.2961" style="stroke:#000000;stroke-width:1.0;" width="10" x="380" y="921.96"/><rect fill="#FFFFFF" height="38.824" style="stroke:#000000;stroke-width:1.0;" width="10" x="714" y="1071.0801"/><rect fill="#FFFFFF" height="57.648" style="stroke:#000000;stroke-width:1.0;" width="10" x="714" y="1317.952"/><rect fill="#FFFFFF" height="78.648" style="stroke:#000000;stroke-width:1.0;" width="10" x="858" y="1556.648"/><rect fill="#FFFFFF" height="717.0159" style="stroke:#000000;stroke-width:1.0;" width="845" x="15" y="522.2881"/><rect fill="#FFFFFF" height="105.3278" style="stroke:#000000;stroke-width:1.0;" width="279.5" x="25" y="629.6881"/><rect fill="#FFFFFF" height="50.7519" style="stroke:none;stroke-width:1.0;" width="279.5" x="25" y="684.264"/><rect fill="#FFFFFF" height="100.3999" style="stroke:#000000;stroke-width:1.0;" width="664" x="137.5" y="1131.9041"/><rect fill="#FFFFFF" height="166.048" style="stroke:#000000;stroke-width:1.0;" width="966" x="25" y="1477.2481"/><rect fill="#FFFFFF" height="168.9758" style="stroke:#000000;stroke-width:1.0;" width="968" x="15" y="1657.2961"/><rect fill="#FFFFFF" height="54.5759" style="stroke:#000000;stroke-width:1.0;" width="909.5" x="25" y="1764.696"/><line style="stroke:#000000;stroke-width:1.0;" x1="80" x2="80" y1="113.3999" y2="2032.6881"/><line style="stroke:#000000;stroke-width:1.0;" x1="220.5" x2="220.5" y1="113.3999" y2="2032.6881"/><line style="stroke:#000000;stroke-width:1.0;" x1="384.5" x2="384.5" y1="113.3999" y2="2032.6881"/><line style="stroke:#000000;stroke-width:1.0;" x1="555.5" x2="555.5" y1="113.3999" y2="2032.6881"/><line style="stroke:#000000;stroke-width:1.0;" x1="718.5" x2="718.5" y1="113.3999" y2="2032.6881"/><line style="stroke:#000000;stroke-width:1.0;" x1="862.5" x2="862.5" y1="113.3999" y2="2032.6881"/><rect fill="#FFFFFF" height="54.5438" rx="2.5" ry="2.5" style="stroke:#000000;stroke-width:1.0;" width="70" x="45" y="57.8561"/><text fill="#000000" font-family="Verdana" font-size="14" lengthAdjust="spacing" textLength="30" x="65" y="81.096">User</text><text fill="#000000" font-family="Verdana" font-size="14" lengthAdjust="spacing" textLength="56" x="52" y="101.3679">&#12518;&#12540;&#12470;&#12540;</text><rect fill="#FFFFFF" height="54.5438" rx="2.5" ry="2.5" style="stroke:#000000;stroke-width:1.0;" width="70" x="45" y="2031.6881"/><text fill="#000000" font-family="Verdana" font-size="14" lengthAdjust="spacing" textLength="30" x="65" y="2054.928">User</text><text fill="#000000" font-family="Verdana" font-size="14" lengthAdjust="spacing" textLength="56" x="52" y="2075.1999">&#12518;&#12540;&#12470;&#12540;</text><rect fill="#FFFFFF" height="54.5438" rx="2.5" ry="2.5" style="stroke:#000000;stroke-width:1.0;" width="127" x="157.5" y="57.8561"/><text fill="#000000" font-family="Verdana" font-size="14" lengthAdjust="spacing" textLength="113" x="164.5" y="81.096">Learning Context</text><text fill="#000000" font-family="Verdana" font-size="14" lengthAdjust="spacing" textLength="112" x="165" y="101.3679">&#23398;&#32722;&#12467;&#12531;&#12486;&#12461;&#12473;&#12488;</text><rect fill="#FFFFFF" height="54.5438" rx="2.5" ry="2.5" style="stroke:#000000;stroke-width:1.0;" width="127" x="157.5" y="2031.6881"/><text fill="#000000" font-family="Verdana" font-size="14" lengthAdjust="spacing" textLength="113" x="164.5" y="2054.928">Learning Context</text><text fill="#000000" font-family="Verdana" font-size="14" lengthAdjust="spacing" textLength="112" x="165" y="2075.1999">&#23398;&#32722;&#12467;&#12531;&#12486;&#12461;&#12473;&#12488;</text><rect fill="#FFFFFF" height="54.5438" rx="2.5" ry="2.5" style="stroke:#000000;stroke-width:1.0;" width="141" x="314.5" y="57.8561"/><text fill="#000000" font-family="Verdana" font-size="14" lengthAdjust="spacing" textLength="127" x="321.5" y="81.096">Learning Algorithm</text><text fill="#000000" font-family="Verdana" font-size="14" lengthAdjust="spacing" textLength="84" x="343" y="101.3679">&#12450;&#12523;&#12468;&#12522;&#12474;&#12512;</text><rect fill="#FFFFFF" height="54.5438" rx="2.5" ry="2.5" style="stroke:#000000;stroke-width:1.0;" width="141" x="314.5" y="2031.6881"/><text fill="#000000" font-family="Verdana" font-size="14" lengthAdjust="spacing" textLength="127" x="321.5" y="2054.928">Learning Algorithm</text><text fill="#000000" font-family="Verdana" font-size="14" lengthAdjust="spacing" textLength="84" x="343" y="2075.1999">&#12450;&#12523;&#12468;&#12522;&#12474;&#12512;</text><rect fill="#FFFFFF" height="54.5438" rx="2.5" ry="2.5" style="stroke:#000000;stroke-width:1.0;" width="141" x="485.5" y="57.8561"/><text fill="#000000" font-family="Verdana" font-size="14" lengthAdjust="spacing" textLength="127" x="492.5" y="81.096">Vocabulary Context</text><text fill="#000000" font-family="Verdana" font-size="14" lengthAdjust="spacing" textLength="56" x="528" y="101.3679">&#35486;&#24409;&#31649;&#29702;</text><rect fill="#FFFFFF" height="54.5438" rx="2.5" ry="2.5" style="stroke:#000000;stroke-width:1.0;" width="141" x="485.5" y="2031.6881"/><text fill="#000000" font-family="Verdana" font-size="14" lengthAdjust="spacing" textLength="127" x="492.5" y="2054.928">Vocabulary Context</text><text fill="#000000" font-family="Verdana" font-size="14" lengthAdjust="spacing" textLength="56" x="528" y="2075.1999">&#35486;&#24409;&#31649;&#29702;</text><rect fill="#FFFFFF" height="54.5438" rx="2.5" ry="2.5" style="stroke:#000000;stroke-width:1.0;" width="125" x="656.5" y="57.8561"/><text fill="#000000" font-family="Verdana" font-size="14" lengthAdjust="spacing" textLength="111" x="663.5" y="81.096">Progress Context</text><text fill="#000000" font-family="Verdana" font-size="14" lengthAdjust="spacing" textLength="28" x="705" y="101.3679">&#36914;&#25431;</text><rect fill="#FFFFFF" height="54.5438" rx="2.5" ry="2.5" style="stroke:#000000;stroke-width:1.0;" width="125" x="656.5" y="2031.6881"/><text fill="#000000" font-family="Verdana" font-size="14" lengthAdjust="spacing" textLength="111" x="663.5" y="2054.928">Progress Context</text><text fill="#000000" font-family="Verdana" font-size="14" lengthAdjust="spacing" textLength="28" x="705" y="2075.1999">&#36914;&#25431;</text><rect fill="#FFFFFF" height="54.5438" rx="2.5" ry="2.5" style="stroke:#000000;stroke-width:1.0;" width="103" x="811.5" y="57.8561"/><text fill="#000000" font-family="Verdana" font-size="14" lengthAdjust="spacing" textLength="89" x="818.5" y="81.096">AI Integration</text><text fill="#000000" font-family="Verdana" font-size="14" lengthAdjust="spacing" textLength="41" x="842.5" y="101.3679">AI&#32113;&#21512;</text><rect fill="#FFFFFF" height="54.5438" rx="2.5" ry="2.5" style="stroke:#000000;stroke-width:1.0;" width="103" x="811.5" y="2031.6881"/><text fill="#000000" font-family="Verdana" font-size="14" lengthAdjust="spacing" textLength="89" x="818.5" y="2054.928">AI Integration</text><text fill="#000000" font-family="Verdana" font-size="14" lengthAdjust="spacing" textLength="41" x="842.5" y="2075.1999">AI&#32113;&#21512;</text><rect fill="#FFFFFF" height="265.4161" style="stroke:#000000;stroke-width:1.0;" width="10" x="216" y="195.048"/><rect fill="#FFFFFF" height="116.2961" style="stroke:#000000;stroke-width:1.0;" width="10" x="380" y="246.696"/><rect fill="#FFFFFF" height="116.2961" style="stroke:#000000;stroke-width:1.0;" width="10" x="380" y="921.96"/><rect fill="#FFFFFF" height="38.824" style="stroke:#000000;stroke-width:1.0;" width="10" x="714" y="1071.0801"/><rect fill="#FFFFFF" height="57.648" style="stroke:#000000;stroke-width:1.0;" width="10" x="714" y="1317.952"/><rect fill="#FFFFFF" height="78.648" style="stroke:#000000;stroke-width:1.0;" width="10" x="858" y="1556.648"/><rect fill="#FFFFFF" height="3" style="stroke:#FFFFFF;stroke-width:1.0;" width="1060" x="5" y="145.8119"/><line style="stroke:#000000;stroke-width:0.5;" x1="5" x2="1065" y1="145.8119" y2="145.8119"/><line style="stroke:#000000;stroke-width:0.5;" x1="5" x2="1065" y1="148.8119" y2="148.8119"/><rect fill="#FFFFFF" height="26.824" style="stroke:#000000;stroke-width:1.0;" width="108" x="481" y="133.3999"/><text fill="#000000" font-family="Verdana" font-size="13" font-weight="bold" lengthAdjust="spacing" textLength="91" x="487" y="152.4799">&#12475;&#12483;&#12471;&#12519;&#12531;&#38283;&#22987;</text><polygon fill="#000000" points="204,191.048,214,195.048,204,199.048,208,195.048" style="stroke:#000000;stroke-width:1.0;"/><line style="stroke:#000000;stroke-width:1.0;" x1="80" x2="210" y1="195.048" y2="195.048"/><text fill="#000000" font-family="Verdana" font-size="13" lengthAdjust="spacing" textLength="52" x="87" y="189.304">&#23398;&#32722;&#38283;&#22987;</text><polygon fill="#000000" points="368,242.696,378,246.696,368,250.696,372,246.696" style="stroke:#000000;stroke-width:1.0;"/><line style="stroke:#000000;stroke-width:1.0;" x1="226" x2="374" y1="246.696" y2="246.696"/><text fill="#000000" font-family="Verdana" font-size="13" lengthAdjust="spacing" textLength="133" x="233" y="222.128">RequestOptimalItems</text><text fill="#000000" font-family="Verdana" font-size="13" lengthAdjust="spacing" textLength="104" x="233" y="240.952">&#26368;&#36969;&#12394;&#38917;&#30446;&#12434;&#35201;&#27714;</text><line style="stroke:#000000;stroke-width:1.0;" x1="390" x2="432" y1="298.344" y2="298.344"/><line style="stroke:#000000;stroke-width:1.0;" x1="432" x2="432" y1="298.344" y2="311.344"/><line style="stroke:#000000;stroke-width:1.0;" x1="391" x2="432" y1="311.344" y2="311.344"/><polygon fill="#000000" points="401,307.344,391,311.344,401,315.344,397,311.344" style="stroke:#000000;stroke-width:1.0;"/><text fill="#000000" font-family="Verdana" font-size="13" lengthAdjust="spacing" textLength="104" x="397" y="273.776">&#27425;&#22238;&#24489;&#32722;&#26085;&#12434;&#30906;&#35469;</text><text fill="#000000" font-family="Verdana" font-size="13" lengthAdjust="spacing" textLength="65" x="397" y="292.6">&#20778;&#20808;&#24230;&#35336;&#31639;</text><polygon fill="#000000" points="237,358.9921,227,362.9921,237,366.9921,233,362.9921" style="stroke:#000000;stroke-width:1.0;"/><line style="stroke:#000000;stroke-width:1.0;stroke-dasharray:2.0,2.0;" x1="231" x2="384" y1="362.9921" y2="362.9921"/><text fill="#000000" font-family="Verdana" font-size="13" lengthAdjust="spacing" textLength="87" x="243" y="338.424">ItemsSelected</text><text fill="#000000" font-family="Verdana" font-size="13" lengthAdjust="spacing" textLength="130" x="243" y="357.2481">&#36984;&#23450;&#12373;&#12428;&#12383;&#38917;&#30446;&#12522;&#12473;&#12488;</text><line style="stroke:#000000;stroke-width:1.0;" x1="226" x2="268" y1="414.6401" y2="414.6401"/><line style="stroke:#000000;stroke-width:1.0;" x1="268" x2="268" y1="414.6401" y2="427.6401"/><line style="stroke:#000000;stroke-width:1.0;" x1="227" x2="268" y1="427.6401" y2="427.6401"/><polygon fill="#000000" points="237,423.6401,227,427.6401,237,431.6401,233,427.6401" style="stroke:#000000;stroke-width:1.0;"/><text fill="#000000" font-family="Verdana" font-size="13" lengthAdjust="spacing" textLength="126" x="233" y="390.0721">LearningSession&#20316;&#25104;</text><text fill="#000000" font-family="Verdana" font-size="13" lengthAdjust="spacing" textLength="86" x="233" y="408.8961">&#26368;&#22823;100&#21839;&#12414;&#12391;</text><polygon fill="#000000" points="91,456.4641,81,460.4641,91,464.4641,87,460.4641" style="stroke:#000000;stroke-width:1.0;"/><line style="stroke:#000000;stroke-width:1.0;stroke-dasharray:2.0,2.0;" x1="85" x2="220" y1="460.4641" y2="460.4641"/><text fill="#000000" font-family="Verdana" font-size="13" lengthAdjust="spacing" textLength="91" x="97" y="454.7201">&#12475;&#12483;&#12471;&#12519;&#12531;&#38283;&#22987;</text><rect fill="#FFFFFF" height="3" style="stroke:#FFFFFF;stroke-width:1.0;" width="1060" x="5" y="490.8761"/><line style="stroke:#000000;stroke-width:0.5;" x1="5" x2="1065" y1="490.8761" y2="490.8761"/><line style="stroke:#000000;stroke-width:0.5;" x1="5" x2="1065" y1="493.8761" y2="493.8761"/><rect fill="#FFFFFF" height="26.824" style="stroke:#000000;stroke-width:1.0;" width="108" x="481" y="478.4641"/><text fill="#000000" font-family="Verdana" font-size="13" font-weight="bold" lengthAdjust="spacing" textLength="91" x="487" y="497.5441">&#23398;&#32722;&#12475;&#12483;&#12471;&#12519;&#12531;</text><path d="M15,522.2881 L88,522.2881 L88,533.1121 L78,543.1121 L15,543.1121 L15,522.2881 " fill="#FFFFFF" style="stroke:#000000;stroke-width:1.0;"/><rect fill="none" height="717.0159" style="stroke:#000000;stroke-width:1.0;" width="845" x="15" y="522.2881"/><text fill="#000000" font-family="Verdana" font-size="13" font-weight="bold" lengthAdjust="spacing" textLength="28" x="30" y="538.3681">loop</text><text fill="#000000" font-family="Verdana" font-size="11" font-weight="bold" lengthAdjust="spacing" textLength="109" x="103" y="537.048">[&#21508;&#21839;&#38988;&#65288;1&#12316;100&#21839;&#65289;]</text><polygon fill="#000000" points="91,564.864,81,568.864,91,572.864,87,568.864" style="stroke:#000000;stroke-width:1.0;"/><line style="stroke:#000000;stroke-width:1.0;" x1="85" x2="220" y1="568.864" y2="568.864"/><text fill="#000000" font-family="Verdana" font-size="13" lengthAdjust="spacing" textLength="52" x="97" y="563.12">&#21839;&#38988;&#25552;&#31034;</text><line style="stroke:#000000;stroke-width:1.0;" x1="80" x2="122" y1="601.6881" y2="601.6881"/><line style="stroke:#000000;stroke-width:1.0;" x1="122" x2="122" y1="601.6881" y2="614.6881"/><line style="stroke:#000000;stroke-width:1.0;" x1="81" x2="122" y1="614.6881" y2="614.6881"/><polygon fill="#000000" points="91,610.6881,81,614.6881,91,618.6881,87,614.6881" style="stroke:#000000;stroke-width:1.0;"/><text fill="#000000" font-family="Verdana" font-size="13" lengthAdjust="spacing" textLength="118" x="87" y="595.9441">&#32771;&#12360;&#12427;&#65288;&#26368;&#22823;30&#31186;&#65289;</text><path d="M25,629.6881 L87,629.6881 L87,640.5121 L77,650.5121 L25,650.5121 L25,629.6881 " fill="#FFFFFF" style="stroke:#000000;stroke-width:1.0;"/><rect fill="none" height="105.3278" style="stroke:#000000;stroke-width:1.0;" width="279.5" x="25" y="629.6881"/><text fill="#000000" font-family="Verdana" font-size="13" font-weight="bold" lengthAdjust="spacing" textLength="17" x="40" y="645.7681">alt</text><text fill="#000000" font-family="Verdana" font-size="11" font-weight="bold" lengthAdjust="spacing" textLength="86" x="102" y="644.448">[30&#31186;&#20197;&#20869;&#12395;&#35299;&#31572;]</text><polygon fill="#000000" points="209,672.264,219,676.264,209,680.264,213,676.264" style="stroke:#000000;stroke-width:1.0;"/><line style="stroke:#000000;stroke-width:1.0;" x1="80" x2="215" y1="676.264" y2="676.264"/><text fill="#000000" font-family="Verdana" font-size="13" lengthAdjust="spacing" textLength="65" x="87" y="670.52">&#35299;&#31572;&#12434;&#35211;&#12427;</text><line style="stroke:#000000;stroke-width:1.0;stroke-dasharray:2.0,2.0;" x1="25" x2="304.5" y1="685.264" y2="685.264"/><text fill="#000000" font-family="Verdana" font-size="11" font-weight="bold" lengthAdjust="spacing" textLength="53" x="30" y="698.0239">[30&#31186;&#32076;&#36942;]</text><polygon fill="#000000" points="91,723.0159,81,727.0159,91,731.0159,87,727.0159" style="stroke:#000000;stroke-width:1.0;"/><line style="stroke:#000000;stroke-width:1.0;" x1="85" x2="220" y1="727.0159" y2="727.0159"/><text fill="#000000" font-family="Verdana" font-size="13" lengthAdjust="spacing" textLength="104" x="97" y="721.2719">&#33258;&#21205;&#30340;&#12395;&#35299;&#31572;&#34920;&#31034;</text><polygon fill="#000000" points="91,762.8399,81,766.8399,91,770.8399,87,766.8399" style="stroke:#000000;stroke-width:1.0;"/><line style="stroke:#000000;stroke-width:1.0;" x1="85" x2="220" y1="766.8399" y2="766.8399"/><text fill="#000000" font-family="Verdana" font-size="13" lengthAdjust="spacing" textLength="98" x="97" y="761.0959">&#35299;&#31572;&#34920;&#31034;&#65288;3&#31186;&#65289;</text><path d="M85,779.8399 L85,826.8399 L236,826.8399 L236,789.8399 L226,779.8399 L85,779.8399 " fill="#FFFFFF" style="stroke:#000000;stroke-width:1.0;"/><path d="M226,779.8399 L226,789.8399 L236,789.8399 L226,779.8399 " fill="#FFFFFF" style="stroke:#000000;stroke-width:1.0;"/><text fill="#000000" font-family="Verdana" font-size="13" lengthAdjust="spacing" textLength="130" x="91" y="799.9199">&#12495;&#12452;&#12502;&#12522;&#12483;&#12489;UI&#12501;&#12525;&#12540;</text><text fill="#000000" font-family="Verdana" font-size="13" lengthAdjust="spacing" textLength="124" x="91" y="818.7439">3&#31186;&#24460;&#33258;&#21205;&#12391;&#27491;&#35492;&#21028;&#23450;</text><line style="stroke:#000000;stroke-width:1.0;" x1="221" x2="263" y1="876.136" y2="876.136"/><line style="stroke:#000000;stroke-width:1.0;" x1="263" x2="263" y1="876.136" y2="889.136"/><line style="stroke:#000000;stroke-width:1.0;" x1="222" x2="263" y1="889.136" y2="889.136"/><polygon fill="#000000" points="232,885.136,222,889.136,232,893.136,228,889.136" style="stroke:#000000;stroke-width:1.0;"/><text fill="#000000" font-family="Verdana" font-size="13" lengthAdjust="spacing" textLength="117" x="228" y="851.5679">CorrectnessJudged</text><text fill="#000000" font-family="Verdana" font-size="13" lengthAdjust="spacing" textLength="52" x="228" y="870.392">&#27491;&#35492;&#21028;&#23450;</text><polygon fill="#000000" points="368,917.96,378,921.96,368,925.96,372,921.96" style="stroke:#000000;stroke-width:1.0;"/><line style="stroke:#000000;stroke-width:1.0;" x1="221" x2="374" y1="921.96" y2="921.96"/><text fill="#000000" font-family="Verdana" font-size="13" lengthAdjust="spacing" textLength="117" x="228" y="916.216">CorrectnessJudged</text><line style="stroke:#000000;stroke-width:1.0;" x1="390" x2="432" y1="992.432" y2="992.432"/><line style="stroke:#000000;stroke-width:1.0;" x1="432" x2="432" y1="992.432" y2="1005.432"/><line style="stroke:#000000;stroke-width:1.0;" x1="391" x2="432" y1="1005.432" y2="1005.432"/><polygon fill="#000000" points="401,1001.432,391,1005.432,401,1009.432,397,1005.432" style="stroke:#000000;stroke-width:1.0;"/><text fill="#000000" font-family="Verdana" font-size="13" lengthAdjust="spacing" textLength="135" x="397" y="949.04">SM-2&#12450;&#12523;&#12468;&#12522;&#12474;&#12512;&#26356;&#26032;</text><text fill="#000000" font-family="Verdana" font-size="13" lengthAdjust="spacing" textLength="120" x="397" y="967.864">easiness_factor&#35519;&#25972;</text><text fill="#000000" font-family="Verdana" font-size="13" lengthAdjust="spacing" textLength="91" x="397" y="986.688">&#27425;&#22238;&#24489;&#32722;&#26085;&#35336;&#31639;</text><polygon fill="#000000" points="707,1034.256,717,1038.256,707,1042.256,711,1038.256" style="stroke:#000000;stroke-width:1.0;"/><line style="stroke:#000000;stroke-width:1.0;" x1="385" x2="713" y1="1038.256" y2="1038.256"/><text fill="#000000" font-family="Verdana" font-size="13" lengthAdjust="spacing" textLength="101" x="392" y="1032.512">ReviewRecorded</text><polygon fill="#000000" points="702,1067.0801,712,1071.0801,702,1075.0801,706,1071.0801" style="stroke:#000000;stroke-width:1.0;"/><line style="stroke:#000000;stroke-width:1.0;" x1="221" x2="708" y1="1071.0801" y2="1071.0801"/><text fill="#000000" font-family="Verdana" font-size="13" lengthAdjust="spacing" textLength="93" x="228" y="1065.3361">ItemAttempted</text><line style="stroke:#000000;stroke-width:1.0;" x1="724" x2="766" y1="1108.9041" y2="1108.9041"/><line style="stroke:#000000;stroke-width:1.0;" x1="766" x2="766" y1="1108.9041" y2="1121.9041"/><line style="stroke:#000000;stroke-width:1.0;" x1="719" x2="766" y1="1121.9041" y2="1121.9041"/><polygon fill="#000000" points="729,1117.9041,719,1121.9041,729,1125.9041,725,1121.9041" style="stroke:#000000;stroke-width:1.0;"/><text fill="#000000" font-family="Verdana" font-size="13" lengthAdjust="spacing" textLength="117" x="731" y="1103.1601">&#32113;&#35336;&#26356;&#26032;&#65288;&#38750;&#21516;&#26399;&#65289;</text><path d="M137.5,1131.9041 L203.5,1131.9041 L203.5,1142.7281 L193.5,1152.7281 L137.5,1152.7281 L137.5,1131.9041 " fill="#FFFFFF" style="stroke:#000000;stroke-width:1.0;"/><rect fill="none" height="100.3999" style="stroke:#000000;stroke-width:1.0;" width="664" x="137.5" y="1131.9041"/><text fill="#000000" font-family="Verdana" font-size="13" font-weight="bold" lengthAdjust="spacing" textLength="21" x="152.5" y="1147.9841">opt</text><text fill="#000000" font-family="Verdana" font-size="11" font-weight="bold" lengthAdjust="spacing" textLength="188" x="218.5" y="1146.664">[3&#22238;&#36899;&#32154;&#27491;&#35299; &amp; &#24179;&#22343;&#21453;&#24540;&#26178;&#38291;3&#31186;&#20197;&#20869;]</text><line style="stroke:#000000;stroke-width:1.0;" x1="221" x2="263" y1="1178.48" y2="1178.48"/><line style="stroke:#000000;stroke-width:1.0;" x1="263" x2="263" y1="1178.48" y2="1191.48"/><line style="stroke:#000000;stroke-width:1.0;" x1="222" x2="263" y1="1191.48" y2="1191.48"/><polygon fill="#000000" points="232,1187.48,222,1191.48,232,1195.48,228,1191.48" style="stroke:#000000;stroke-width:1.0;"/><text fill="#000000" font-family="Verdana" font-size="13" lengthAdjust="spacing" textLength="104" x="228" y="1172.736">&#30701;&#26399;&#12510;&#12473;&#12479;&#12540;&#21028;&#23450;</text><polygon fill="#000000" points="707,1220.304,717,1224.304,707,1228.304,711,1224.304" style="stroke:#000000;stroke-width:1.0;"/><line style="stroke:#000000;stroke-width:1.0;" x1="221" x2="713" y1="1224.304" y2="1224.304"/><text fill="#000000" font-family="Verdana" font-size="13" lengthAdjust="spacing" textLength="128" x="228" y="1218.56">ItemMasteryUpdated</text><rect fill="#FFFFFF" height="3" style="stroke:#FFFFFF;stroke-width:1.0;" width="1060" x="5" y="1268.716"/><line style="stroke:#000000;stroke-width:0.5;" x1="5" x2="1065" y1="1268.716" y2="1268.716"/><line style="stroke:#000000;stroke-width:0.5;" x1="5" x2="1065" y1="1271.716" y2="1271.716"/><rect fill="#FFFFFF" height="26.824" style="stroke:#000000;stroke-width:1.0;" width="108" x="481" y="1256.304"/><text fill="#000000" font-family="Verdana" font-size="13" font-weight="bold" lengthAdjust="spacing" textLength="91" x="487" y="1275.384">&#12475;&#12483;&#12471;&#12519;&#12531;&#23436;&#20102;</text><polygon fill="#000000" points="702,1313.952,712,1317.952,702,1321.952,706,1317.952" style="stroke:#000000;stroke-width:1.0;"/><line style="stroke:#000000;stroke-width:1.0;" x1="221" x2="708" y1="1317.952" y2="1317.952"/><text fill="#000000" font-family="Verdana" font-size="13" lengthAdjust="spacing" textLength="114" x="228" y="1312.208">SessionCompleted</text><line style="stroke:#000000;stroke-width:1.0;" x1="724" x2="766" y1="1374.6001" y2="1374.6001"/><line style="stroke:#000000;stroke-width:1.0;" x1="766" x2="766" y1="1374.6001" y2="1387.6001"/><line style="stroke:#000000;stroke-width:1.0;" x1="719" x2="766" y1="1387.6001" y2="1387.6001"/><polygon fill="#000000" points="729,1383.6001,719,1387.6001,729,1391.6001,725,1387.6001" style="stroke:#000000;stroke-width:1.0;"/><text fill="#000000" font-family="Verdana" font-size="13" lengthAdjust="spacing" textLength="78" x="731" y="1350.032">&#26085;&#27425;&#32113;&#35336;&#26356;&#26032;</text><text fill="#000000" font-family="Verdana" font-size="13" lengthAdjust="spacing" textLength="91" x="731" y="1368.8561">&#12473;&#12488;&#12522;&#12540;&#12463;&#35336;&#31639;</text><polygon fill="#000000" points="91,1411.4241,81,1415.4241,91,1419.4241,87,1415.4241" style="stroke:#000000;stroke-width:1.0;"/><line style="stroke:#000000;stroke-width:1.0;stroke-dasharray:2.0,2.0;" x1="85" x2="220" y1="1415.4241" y2="1415.4241"/><text fill="#000000" font-family="Verdana" font-size="13" lengthAdjust="spacing" textLength="117" x="97" y="1409.6801">&#12475;&#12483;&#12471;&#12519;&#12531;&#32080;&#26524;&#34920;&#31034;</text><rect fill="#FFFFFF" height="3" style="stroke:#FFFFFF;stroke-width:1.0;" width="1060" x="5" y="1445.8361"/><line style="stroke:#000000;stroke-width:0.5;" x1="5" x2="1065" y1="1445.8361" y2="1445.8361"/><line style="stroke:#000000;stroke-width:0.5;" x1="5" x2="1065" y1="1448.8361" y2="1448.8361"/><rect fill="#FFFFFF" height="26.824" style="stroke:#000000;stroke-width:1.0;" width="121" x="474.5" y="1433.4241"/><text fill="#000000" font-family="Verdana" font-size="13" font-weight="bold" lengthAdjust="spacing" textLength="104" x="480.5" y="1452.5041">&#12381;&#12398;&#20182;&#12398;&#12452;&#12505;&#12531;&#12488;</text><path d="M25,1477.2481 L91,1477.2481 L91,1488.0721 L81,1498.0721 L25,1498.0721 L25,1477.2481 " fill="#FFFFFF" style="stroke:#000000;stroke-width:1.0;"/><rect fill="none" height="166.048" style="stroke:#000000;stroke-width:1.0;" width="966" x="25" y="1477.2481"/><text fill="#000000" font-family="Verdana" font-size="13" font-weight="bold" lengthAdjust="spacing" textLength="21" x="40" y="1493.3281">opt</text><text fill="#000000" font-family="Verdana" font-size="11" font-weight="bold" lengthAdjust="spacing" textLength="85" x="106" y="1492.008">[&#26032;&#35215;&#35486;&#24409;&#36861;&#21152;&#26178;]</text><polygon fill="#000000" points="544,1519.824,554,1523.824,544,1527.824,548,1523.824" style="stroke:#000000;stroke-width:1.0;"/><line style="stroke:#000000;stroke-width:1.0;" x1="80" x2="550" y1="1523.824" y2="1523.824"/><text fill="#000000" font-family="Verdana" font-size="13" lengthAdjust="spacing" textLength="78" x="87" y="1518.08">&#26032;&#35215;&#38917;&#30446;&#36861;&#21152;</text><polygon fill="#000000" points="846,1552.648,856,1556.648,846,1560.648,850,1556.648" style="stroke:#000000;stroke-width:1.0;"/><line style="stroke:#000000;stroke-width:1.0;" x1="556" x2="852" y1="1556.648" y2="1556.648"/><text fill="#000000" font-family="Verdana" font-size="13" lengthAdjust="spacing" textLength="144" x="563" y="1550.904">AIGenerationRequested</text><line style="stroke:#000000;stroke-width:1.0;" x1="868" x2="910" y1="1589.472" y2="1589.472"/><line style="stroke:#000000;stroke-width:1.0;" x1="910" x2="910" y1="1589.472" y2="1602.472"/><line style="stroke:#000000;stroke-width:1.0;" x1="869" x2="910" y1="1602.472" y2="1602.472"/><polygon fill="#000000" points="879,1598.472,869,1602.472,879,1606.472,875,1602.472" style="stroke:#000000;stroke-width:1.0;"/><text fill="#000000" font-family="Verdana" font-size="13" lengthAdjust="spacing" textLength="104" x="875" y="1583.728">&#38750;&#21516;&#26399;&#12391;&#24773;&#22577;&#29983;&#25104;</text><polygon fill="#000000" points="567,1631.2961,557,1635.2961,567,1639.2961,563,1635.2961" style="stroke:#000000;stroke-width:1.0;"/><line style="stroke:#000000;stroke-width:1.0;stroke-dasharray:2.0,2.0;" x1="561" x2="862" y1="1635.2961" y2="1635.2961"/><text fill="#000000" font-family="Verdana" font-size="13" lengthAdjust="spacing" textLength="135" x="573" y="1629.5521">GenerationCompleted</text><path d="M15,1657.2961 L81,1657.2961 L81,1668.1201 L71,1678.1201 L15,1678.1201 L15,1657.2961 " fill="#FFFFFF" style="stroke:#000000;stroke-width:1.0;"/><rect fill="none" height="168.9758" style="stroke:#000000;stroke-width:1.0;" width="968" x="15" y="1657.2961"/><text fill="#000000" font-family="Verdana" font-size="13" font-weight="bold" lengthAdjust="spacing" textLength="21" x="30" y="1673.3761">opt</text><text fill="#000000" font-family="Verdana" font-size="11" font-weight="bold" lengthAdjust="spacing" textLength="63" x="96" y="1672.056">[&#28145;&#25496;&#12426;&#23398;&#32722;]</text><polygon fill="#000000" points="851,1699.872,861,1703.872,851,1707.872,855,1703.872" style="stroke:#000000;stroke-width:1.0;"/><line style="stroke:#000000;stroke-width:1.0;" x1="80" x2="857" y1="1703.872" y2="1703.872"/><text fill="#000000" font-family="Verdana" font-size="13" lengthAdjust="spacing" textLength="78" x="87" y="1698.128">&#12481;&#12515;&#12483;&#12488;&#38283;&#22987;</text><line style="stroke:#000000;stroke-width:1.0;" x1="863" x2="905" y1="1736.696" y2="1736.696"/><line style="stroke:#000000;stroke-width:1.0;" x1="905" x2="905" y1="1736.696" y2="1749.696"/><line style="stroke:#000000;stroke-width:1.0;" x1="864" x2="905" y1="1749.696" y2="1749.696"/><polygon fill="#000000" points="874,1745.696,864,1749.696,874,1753.696,870,1749.696" style="stroke:#000000;stroke-width:1.0;"/><text fill="#000000" font-family="Verdana" font-size="13" lengthAdjust="spacing" textLength="101" x="870" y="1730.952">ChatSession&#20316;&#25104;</text><path d="M25,1764.696 L98,1764.696 L98,1775.52 L88,1785.52 L25,1785.52 L25,1764.696 " fill="#FFFFFF" style="stroke:#000000;stroke-width:1.0;"/><rect fill="none" height="54.5759" style="stroke:#000000;stroke-width:1.0;" width="909.5" x="25" y="1764.696"/><text fill="#000000" font-family="Verdana" font-size="13" font-weight="bold" lengthAdjust="spacing" textLength="28" x="40" y="1780.776">loop</text><text fill="#000000" font-family="Verdana" font-size="11" font-weight="bold" lengthAdjust="spacing" textLength="30" x="113" y="1779.4559">[&#23550;&#35441;]</text><polygon fill="#000000" points="91,1807.2719,81,1811.2719,91,1815.2719,87,1811.2719" style="stroke:#000000;stroke-width:1.0;"/><polygon fill="#000000" points="851,1807.2719,861,1811.2719,851,1815.2719,855,1811.2719" style="stroke:#000000;stroke-width:1.0;"/><line style="stroke:#000000;stroke-width:1.0;" x1="85" x2="857" y1="1811.2719" y2="1811.2719"/><text fill="#000000" font-family="Verdana" font-size="13" lengthAdjust="spacing" textLength="91" x="97" y="1805.5279">&#12513;&#12483;&#12475;&#12540;&#12472;&#20132;&#25563;</text><path d="M724,1838.2719 L724,2017.2719 L1060,2017.2719 L1060,1848.2719 L1050,1838.2719 L724,1838.2719 " fill="#FFFFFF" style="stroke:#000000;stroke-width:1.0;"/><path d="M1050,1838.2719 L1050,1848.2719 L1060,1848.2719 L1050,1838.2719 " fill="#FFFFFF" style="stroke:#000000;stroke-width:1.0;"/><text fill="#000000" font-family="Verdana" font-size="13" font-weight="bold" lengthAdjust="spacing" textLength="169" x="730" y="1858.3519">&#12452;&#12505;&#12531;&#12488;&#39366;&#21205;&#12450;&#12540;&#12461;&#12486;&#12463;&#12481;&#12515;</text><text fill="#000000" font-family="Verdana" font-size="13" lengthAdjust="spacing" textLength="195" x="730" y="1877.1759">&#12539;&#21508;&#12467;&#12531;&#12486;&#12461;&#12473;&#12488;&#12399;&#29420;&#31435;&#12375;&#12390;&#21205;&#20316;</text><text fill="#000000" font-family="Verdana" font-size="13" lengthAdjust="spacing" textLength="156" x="730" y="1896">&#12539;&#12452;&#12505;&#12531;&#12488;&#12391;&#30094;&#32080;&#21512;&#12395;&#36899;&#25658;</text><text fill="#000000" font-family="Verdana" font-size="13" lengthAdjust="spacing" textLength="117" x="730" y="1914.824">&#12539;&#32080;&#26524;&#25972;&#21512;&#24615;&#12391;&#21516;&#26399;</text><text fill="#000000" font-family="Verdana" font-size="13" lengthAdjust="spacing" textLength="3" x="730" y="1933.648">&#160;</text><text fill="#000000" font-family="Verdana" font-size="13" font-weight="bold" lengthAdjust="spacing" textLength="91" x="730" y="1952.472">&#37325;&#35201;&#12394;&#12452;&#12505;&#12531;&#12488;</text><text fill="#000000" font-family="Verdana" font-size="13" lengthAdjust="spacing" textLength="264" x="730" y="1971.296">&#12539;CorrectnessJudged&#65306;&#27491;&#35492;&#21028;&#23450;&#65288;LC&#8594;LA&#65289;</text><text fill="#000000" font-family="Verdana" font-size="13" lengthAdjust="spacing" textLength="301" x="730" y="1990.12">&#12539;SessionCompleted&#65306;&#12475;&#12483;&#12471;&#12519;&#12531;&#23436;&#20102;&#65288;LC&#8594;PC&#65289;</text><text fill="#000000" font-family="Verdana" font-size="13" lengthAdjust="spacing" textLength="315" x="730" y="2008.9441">&#12539;ItemMasteryUpdated&#65306;&#12510;&#12473;&#12479;&#12522;&#12540;&#26356;&#26032;&#65288;LC&#8594;PC&#65289;</text><!--SRC=[VLPTJzjM6BxFh_1wiLwXqN670CcAfYaJrL0HN4MQ33a4Iy7E7DEjTx7DHze44h4I1eIF54fAA336Hsa8y5zsEBPprR_GzvpZ97P89oLMvFD-Fi_xFYVVwTDe1Wd9X2Gh8LtM4qZuQMeAJUe2jjQmTOpDQsnMi7cAhOpG8v3Z0-T-1PitsBAm-GbR5MoTO-C4c_lOMgU_hGosLgcZLG-5dWeaRv8tksvwdfniE7U7eQIawVAad9GKNNWoba9QLC7M0HXZymgUJmGf9T3NGSDX96cAhCI5iAhew4yzgZGBEMSv5x09bNw6v2p0SFWRxc8YhcgoFZq3MSrts3h2vWMsgjYiOMkNkuf1rt5rKfgOJKZQgtPkjxfDRjUTax9JM61EuntvHZGrhg5KgktIIFzhBwqnuv4EOp4YHC0ghacwh2fHHOmubsUam3iH8nJ43hmRnIofPDim3mvsjn061qCKIw5d223fzyZZPo5fKfTVIZgYO8M6myn6x1TUeDzdKKh_DQdBCr8YegEPL5InI-c6SOYDQcDttja4ibVS0yC-Ctr1nD2ms8nXVooJpMroTmZPxBNtOEwygxdL9M1jhahcCwHsu7x8E2ThpCShZgKQHGaOFHG3m8nhc1Xih68pXuqTBp6bYh8SYY5_wcRz4AP9zIZ03t0-t9RiJ85rGFOhptfxoMeU6tVOg30VSA80zNV7Bv0bpAQPJvqV-QuRGP5Fg6fI88KvoDWevxxKCyzmkiGh-59_7H84NZJFputiVC7Phy5HapL-wAOjR6ImcOKWl96-NgUomgF0Hqhe0dlpSFEUBCnZuyYjx3d7R-6e7Og2mryp-h8G3ivH8eMuhtEPQnZBpCLVcBjO9TbLPsEk5TKjV-158YN6ymViVJPGRb-hJaK553KvFgqBwbGJTIlFXAD8YGNuhDTZaHQuKOKwaxiSBm4eiu_ttEe-oUp3PFWpqzR2ggR1w2X0-o-piJWTeSVcJoaVZpK36zST4kQirznohfr0x9A00k-RGR1jBS3eyvuV7-kBlNbX5_-9AaXAoJJCRrFWhsfkzTvUlO1oWrlZRKWpx4YOxkPB6Vtn0asgMepb3sw13v4HRw547Hv9FLWi2900ZwOTg0tauiK1OusjRLB8sQKTJfil1VDZA69hco9dtZFUwjmNJjGa328qqKZlELSR5F_Adl2zG3wVawr5abyYzoLxtMmK_-fh3Qjlu2YDpiunfFR5hxVuw-pjkPJIaVPgB1cJU8Dq7kdtiM2Iazn3RQ6BJl83kgtjs9voXDMPP0BHo7u0sh01HS2O7pnwfx1nOg30bUbH68JmVtN7kIpOsoLlmw0FTw_aNfspxQi6zTxOWf5zk2bs32vjXR80vRW7UNvHkVUtS0K3y3vX6QSTC1kkhDm63CPPWsAa7xu_8mNnMycx5O9p17UJ08-cVMjmwAPQysJtp7cx0-Bh6Nb9sp7R00Uc3A8o4baNdyxivR-n-OQBhAz-cX1R1hRsc6vaFC7srnEUblJ0BG2dN9DFxzp3ixOu3hJYbHaNDuozwuVQlftV3CuLMIm_t6L3GIrZUp4mCUJdeL5Pe9f5DQ1ETOQgpIalUE27YI5mmDRDDyJerCb-T8wos5Z3nW54WUgvVU1Fbb5nYiimB_1F0QGPDiukrBWP7oBG53YoqnMmvBpmxOL26ujBS7_JaV85R9VrIEc-r3VyMWeYCHp-Rs5bMEGI0IwTEmCUNJUjwJeIRha-NcNgt4rWWix02BjJGby1]--></g></svg>