<?xml version="1.0" encoding="us-ascii" standalone="no"?><svg xmlns="http://www.w3.org/2000/svg" xmlns:xlink="http://www.w3.org/1999/xlink" contentStyleType="text/css" height="403px" preserveAspectRatio="none" style="width:1319px;height:403px;background:#FFFFFF;" version="1.1" viewBox="0 0 1319 403" width="1319px" zoomAndPan="magnify"><defs/><g><text fill="#000000" font-family="sans-serif" font-size="14" font-weight="bold" lengthAdjust="spacing" textLength="256" x="524.75" y="26.2399">Effect Project - Bounded Context Map</text><!--cluster Core Domain--><g id="cluster_Core Domain"><path d="M248.5,100.6819 L338.5,100.6819 A3.75,3.75 0 0 1 341,103.1819 L348,126.9538 L697.5,126.9538 A2.5,2.5 0 0 1 700,129.4538 L700,393.6819 A2.5,2.5 0 0 1 697.5,396.1819 L248.5,396.1819 A2.5,2.5 0 0 1 246,393.6819 L246,103.1819 A2.5,2.5 0 0 1 248.5,100.6819 " fill="#FFE6CC" style="stroke:#666666;stroke-width:1.5;"/><line style="stroke:#666666;stroke-width:1.5;" x1="246" x2="348" y1="126.9538" y2="126.9538"/><text fill="#000000" font-family="sans-serif" font-size="14" font-weight="bold" lengthAdjust="spacing" textLength="89" x="250" y="118.9218">Core Domain</text></g><!--cluster Supporting Domain--><g id="cluster_Supporting Domain"><path d="M736.5,100.6819 L872.5,100.6819 A3.75,3.75 0 0 1 875,103.1819 L882,126.9538 L1052.5,126.9538 A2.5,2.5 0 0 1 1055,129.4538 L1055,393.6819 A2.5,2.5 0 0 1 1052.5,396.1819 L736.5,396.1819 A2.5,2.5 0 0 1 734,393.6819 L734,103.1819 A2.5,2.5 0 0 1 736.5,100.6819 " fill="#CCE5FF" style="stroke:#666666;stroke-width:1.5;"/><line style="stroke:#666666;stroke-width:1.5;" x1="734" x2="882" y1="126.9538" y2="126.9538"/><text fill="#000000" font-family="sans-serif" font-size="14" font-weight="bold" lengthAdjust="spacing" textLength="135" x="738" y="118.9218">Supporting Domain</text></g><!--cluster Generic Subdomain--><g id="cluster_Generic Subdomain"><path d="M8.5,100.6819 L144.5,100.6819 A3.75,3.75 0 0 1 147,103.1819 L154,126.9538 L219.5,126.9538 A2.5,2.5 0 0 1 222,129.4538 L222,203.1819 A2.5,2.5 0 0 1 219.5,205.6819 L8.5,205.6819 A2.5,2.5 0 0 1 6,203.1819 L6,103.1819 A2.5,2.5 0 0 1 8.5,100.6819 " fill="#E6E6E6" style="stroke:#666666;stroke-width:1.5;"/><line style="stroke:#666666;stroke-width:1.5;" x1="6" x2="154" y1="126.9538" y2="126.9538"/><text fill="#000000" font-family="sans-serif" font-size="14" font-weight="bold" lengthAdjust="spacing" textLength="135" x="10" y="118.9218">Generic Subdomain</text></g><!--entity LC--><g id="elem_LC"><rect fill="#F1F1F1" height="50.2719" rx="2.5" ry="2.5" style="stroke:#333333;stroke-width:2.0;" width="153" x="402.5" y="139.6819"/><rect fill="#F1F1F1" height="10" style="stroke:#333333;stroke-width:2.0;" width="15" x="535.5" y="144.6819"/><rect fill="#F1F1F1" height="2" style="stroke:#333333;stroke-width:2.0;" width="4" x="533.5" y="146.6819"/><rect fill="#F1F1F1" height="2" style="stroke:#333333;stroke-width:2.0;" width="4" x="533.5" y="150.6819"/><text fill="#000000" font-family="sans-serif" font-size="14" lengthAdjust="spacing" textLength="113" x="417.5" y="175.9218">Learning Context</text></g><!--entity LAC--><g id="elem_LAC"><rect fill="#F1F1F1" height="50.2719" rx="2.5" ry="2.5" style="stroke:#333333;stroke-width:2.0;" width="221" x="463.5" y="330.1819"/><rect fill="#F1F1F1" height="10" style="stroke:#333333;stroke-width:2.0;" width="15" x="664.5" y="335.1819"/><rect fill="#F1F1F1" height="2" style="stroke:#333333;stroke-width:2.0;" width="4" x="662.5" y="337.1819"/><rect fill="#F1F1F1" height="2" style="stroke:#333333;stroke-width:2.0;" width="4" x="662.5" y="341.1819"/><text fill="#000000" font-family="sans-serif" font-size="14" lengthAdjust="spacing" textLength="181" x="478.5" y="366.4218">Learning Algorithm Context</text></g><!--entity VC--><g id="elem_VC"><rect fill="#F1F1F1" height="50.2719" rx="2.5" ry="2.5" style="stroke:#333333;stroke-width:2.0;" width="167" x="261.5" y="330.1819"/><rect fill="#F1F1F1" height="10" style="stroke:#333333;stroke-width:2.0;" width="15" x="408.5" y="335.1819"/><rect fill="#F1F1F1" height="2" style="stroke:#333333;stroke-width:2.0;" width="4" x="406.5" y="337.1819"/><rect fill="#F1F1F1" height="2" style="stroke:#333333;stroke-width:2.0;" width="4" x="406.5" y="341.1819"/><text fill="#000000" font-family="sans-serif" font-size="14" lengthAdjust="spacing" textLength="127" x="276.5" y="366.4218">Vocabulary Context</text></g><!--entity UC--><g id="elem_UC"><rect fill="#F1F1F1" height="50.2719" rx="2.5" ry="2.5" style="stroke:#333333;stroke-width:2.0;" width="124" x="750" y="139.6819"/><rect fill="#F1F1F1" height="10" style="stroke:#333333;stroke-width:2.0;" width="15" x="854" y="144.6819"/><rect fill="#F1F1F1" height="2" style="stroke:#333333;stroke-width:2.0;" width="4" x="852" y="146.6819"/><rect fill="#F1F1F1" height="2" style="stroke:#333333;stroke-width:2.0;" width="4" x="852" y="150.6819"/><text fill="#000000" font-family="sans-serif" font-size="14" lengthAdjust="spacing" textLength="84" x="765" y="175.9218">User Context</text></g><!--entity PC--><g id="elem_PC"><rect fill="#F1F1F1" height="50.2719" rx="2.5" ry="2.5" style="stroke:#333333;stroke-width:2.0;" width="151" x="795.5" y="330.1819"/><rect fill="#F1F1F1" height="10" style="stroke:#333333;stroke-width:2.0;" width="15" x="926.5" y="335.1819"/><rect fill="#F1F1F1" height="2" style="stroke:#333333;stroke-width:2.0;" width="4" x="924.5" y="337.1819"/><rect fill="#F1F1F1" height="2" style="stroke:#333333;stroke-width:2.0;" width="4" x="924.5" y="341.1819"/><text fill="#000000" font-family="sans-serif" font-size="14" lengthAdjust="spacing" textLength="111" x="810.5" y="366.4218">Progress Context</text></g><!--entity AIC--><g id="elem_AIC"><rect fill="#F1F1F1" height="50.2719" rx="2.5" ry="2.5" style="stroke:#333333;stroke-width:2.0;" width="183" x="22.5" y="139.6819"/><rect fill="#F1F1F1" height="10" style="stroke:#333333;stroke-width:2.0;" width="15" x="185.5" y="144.6819"/><rect fill="#F1F1F1" height="2" style="stroke:#333333;stroke-width:2.0;" width="4" x="183.5" y="146.6819"/><rect fill="#F1F1F1" height="2" style="stroke:#333333;stroke-width:2.0;" width="4" x="183.5" y="150.6819"/><text fill="#000000" font-family="sans-serif" font-size="14" lengthAdjust="spacing" textLength="143" x="37.5" y="175.9218">AI Integration Context</text></g><g id="elem_GMN24"><path d="M1071.5,75.1819 L1071.5,254.5981 L1312.5,254.5981 L1312.5,85.1819 L1302.5,75.1819 L1071.5,75.1819 " fill="#FEFFDD" style="stroke:#181818;stroke-width:0.5;"/><path d="M1302.5,75.1819 L1302.5,85.1819 L1312.5,85.1819 L1302.5,75.1819 " fill="#FEFFDD" style="stroke:#181818;stroke-width:1.0;"/><text fill="#000000" font-family="sans-serif" font-size="13" font-weight="bold" lengthAdjust="spacing" textLength="52" x="1077.5" y="95.2619">Legend:</text><text fill="#000000" font-family="sans-serif" font-size="13" lengthAdjust="spacing" textLength="183" x="1077.5" y="114.0859">[C]-&gt;[S] : Customer -&gt; Supplier</text><text fill="#000000" font-family="sans-serif" font-size="13" lengthAdjust="spacing" textLength="183" x="1077.5" y="132.91">[S]-&gt;[C] : Supplier -&gt; Customer</text><text fill="#000000" font-family="sans-serif" font-size="13" lengthAdjust="spacing" textLength="97" x="1077.5" y="151.734">[P] : Partnership</text><text fill="#000000" font-family="sans-serif" font-size="13" lengthAdjust="spacing" textLength="147" x="1077.5" y="170.558">PL : Published Language</text><text fill="#000000" font-family="sans-serif" font-size="13" lengthAdjust="spacing" textLength="166" x="1077.5" y="189.382">ACL : Anti-Corruption Layer</text><text fill="#000000" font-family="sans-serif" font-size="13" lengthAdjust="spacing" textLength="3" x="1077.5" y="208.206">&#160;</text><text fill="#000000" font-family="sans-serif" font-size="13" lengthAdjust="spacing" textLength="150" x="1077.5" y="227.03">Solid line : Implemented</text><text fill="#000000" font-family="sans-serif" font-size="13" lengthAdjust="spacing" textLength="220" x="1077.5" y="245.8541">Dotted line : Future implementation</text></g><!--link UC to LC--><g id="link_UC_LC"><path d="M749.77,164.6819 C694.88,164.6819 620.69,164.6819 561.82,164.6819 " fill="none" id="UC-to-LC" style="stroke:#333333;stroke-width:1.0;"/><polygon fill="#333333" points="555.82,164.6819,564.82,168.6819,560.82,164.6819,564.82,160.6819,555.82,164.6819" style="stroke:#333333;stroke-width:1.0;"/><text fill="#000000" font-family="sans-serif" font-size="10" lengthAdjust="spacing" textLength="74" x="615.75" y="158.2819">[C]-&gt;[S] Sync API</text></g><!--link UC to PC--><g id="link_UC_PC"><path d="M796.81,190.0219 C781.36,218.1819 762.28,265.1619 782,300.1819 C788.92,312.4619 794.8426,319.0224 806.7426,326.7224 " fill="none" id="UC-to-PC" style="stroke:#333333;stroke-width:1.0;"/><polygon fill="#333333" points="811.78,329.9819,806.3969,321.7344,807.5821,327.2657,802.0509,328.4509,811.78,329.9819" style="stroke:#333333;stroke-width:1.0;"/><text fill="#000000" font-family="sans-serif" font-size="10" lengthAdjust="spacing" textLength="74" x="783" y="296.7819">[C]-&gt;[S] Sync API</text></g><!--link PC to UC--><g id="link_PC_UC"><path d="M869.51,329.8919 C868.27,316.2819 866.02,299.0919 862,284.1819 C852.87,250.3319 838.7839,218.8131 827.2039,195.3331 " fill="none" id="PC-to-UC" style="stroke:#333333;stroke-width:1.0;stroke-dasharray:7.0,7.0;"/><polygon fill="#333333" points="824.55,189.9519,824.9434,199.7929,826.7616,194.4362,832.1183,196.2544,824.55,189.9519" style="stroke:#333333;stroke-width:1.0;"/><text fill="#000000" font-family="sans-serif" font-size="10" lengthAdjust="spacing" textLength="136" x="866" y="296.7819">[S]-&gt;[C] Event-Driven (Future)</text></g><!--link LC to LAC--><g id="link_LC_LAC"><path d="M471.31,189.7019 C463.71,218.1819 455.86,266.0919 476,300.1819 C483.36,312.6419 489.6229,319.289 502.0529,326.899 " fill="none" id="LC-to-LAC" style="stroke:#333333;stroke-width:1.0;"/><polygon fill="#333333" points="507.17,330.0319,501.5829,321.9212,502.9057,327.4212,497.4057,328.744,507.17,330.0319" style="stroke:#333333;stroke-width:1.0;"/><text fill="#000000" font-family="sans-serif" font-size="10" lengthAdjust="spacing" textLength="53" x="477" y="296.7819">[P] Sync API</text></g><!--link LAC to LC--><g id="link_LAC_LC"><path d="M561.82,330.0219 C543.61,293.8819 512.1704,231.4899 493.9304,195.2999 " fill="none" id="LAC-to-LC" style="stroke:#333333;stroke-width:1.0;"/><polygon fill="#333333" points="491.23,189.9419,491.7087,199.7791,493.4804,194.4069,498.8526,196.1785,491.23,189.9419" style="stroke:#333333;stroke-width:1.0;"/><text fill="#000000" font-family="sans-serif" font-size="10" lengthAdjust="spacing" textLength="53" x="546" y="296.7819">[P] Sync API</text></g><!--link LC to PC--><g id="link_LC_PC"><path d="M511,189.7919 C551.36,219.2619 623.76,269.0419 692,300.1819 C724.78,315.1419 756.9948,325.6907 789.5348,334.6407 " fill="none" id="LC-to-PC" style="stroke:#333333;stroke-width:1.0;"/><polygon fill="#333333" points="795.32,336.2319,787.703,329.9884,790.499,334.9059,785.5815,337.7019,795.32,336.2319" style="stroke:#333333;stroke-width:1.0;"/><text fill="#000000" font-family="sans-serif" font-size="10" lengthAdjust="spacing" textLength="74" x="693" y="296.7819">PL Event-Driven</text></g><!--link LC to VC--><g id="link_LC_VC"><path d="M458.07,189.8219 C438.22,213.2019 408.1,250.0319 385,284.1819 C375.04,298.9019 367.9875,310.9815 360.5175,324.7115 " fill="none" id="LC-to-VC" style="stroke:#333333;stroke-width:1.0;"/><polygon fill="#333333" points="357.65,329.9819,365.4648,323.9879,360.0396,325.5899,358.4376,320.1646,357.65,329.9819" style="stroke:#333333;stroke-width:1.0;"/><text fill="#000000" font-family="sans-serif" font-size="10" lengthAdjust="spacing" textLength="74" x="386" y="296.7819">[C]-&gt;[S] Sync API</text></g><!--link LC to AIC--><g id="link_LC_AIC"><path d="M402.43,164.6819 C345.07,164.6819 272.35,164.6819 211.63,164.6819 " fill="none" id="LC-to-AIC" style="stroke:#333333;stroke-width:1.0;stroke-dasharray:7.0,7.0;"/><polygon fill="#333333" points="205.63,164.6819,214.63,168.6819,210.63,164.6819,214.63,160.6819,205.63,164.6819" style="stroke:#333333;stroke-width:1.0;"/><text fill="#000000" font-family="sans-serif" font-size="10" lengthAdjust="spacing" textLength="136" x="236" y="158.2819">[C]-&gt;[S] Event-Driven (Future)</text></g><!--link AIC to LC--><g id="link_AIC_LC"><path d="M205.63,164.6819 C266.35,164.6819 339.07,164.6819 396.43,164.6819 " fill="none" id="AIC-to-LC" style="stroke:#333333;stroke-width:1.0;stroke-dasharray:7.0,7.0;"/><polygon fill="#333333" points="402.43,164.6819,393.43,160.6819,397.43,164.6819,393.43,168.6819,402.43,164.6819" style="stroke:#333333;stroke-width:1.0;"/><text fill="#000000" font-family="sans-serif" font-size="10" lengthAdjust="spacing" textLength="136" x="236" y="158.2819">[S]-&gt;[C] Event-Driven (Future)</text></g><!--link AIC to LC--><g id="link_AIC_LC"><path d="M205.61,180.2719 C216.66,181.6719 227.82,182.8719 238.5,183.6819 C296.56,188.0819 311.49,188.6819 369.5,183.6819 C380.17,182.7619 385.4266,182.2435 396.4066,180.5935 " fill="none" id="AIC-to-LC-1" style="stroke:#333333;stroke-width:1.0;stroke-dasharray:7.0,7.0;"/><polygon fill="#333333" points="402.34,179.7019,392.8455,177.0838,397.3955,180.4449,394.0343,184.9949,402.34,179.7019" style="stroke:#333333;stroke-width:1.0;"/><text fill="#000000" font-family="sans-serif" font-size="10" lengthAdjust="spacing" textLength="129" x="239.5" y="180.2819">[S]-&gt;[C] WebSocket (Future)</text></g><!--link LAC to PC--><g id="link_LAC_PC"><path d="M684.59,355.1819 C721.53,355.1819 755.83,355.1819 789.48,355.1819 " fill="none" id="LAC-to-PC" style="stroke:#333333;stroke-width:1.0;"/><polygon fill="#333333" points="795.48,355.1819,786.48,351.1819,790.48,355.1819,786.48,359.1819,795.48,355.1819" style="stroke:#333333;stroke-width:1.0;"/><text fill="#000000" font-family="sans-serif" font-size="10" lengthAdjust="spacing" textLength="74" x="703" y="348.7819">PL Event-Driven</text></g><!--link VC to AIC--><g id="link_VC_AIC"><path d="M305.78,330.0819 C291.95,321.1319 276.48,310.6119 263,300.1819 C216.69,264.3619 171.2922,221.8141 142.6022,193.9241 " fill="none" id="VC-to-AIC" style="stroke:#333333;stroke-width:1.0;"/><polygon fill="#333333" points="138.3,189.7419,141.9651,198.8834,141.8852,193.2271,147.5415,193.1471,138.3,189.7419" style="stroke:#333333;stroke-width:1.0;"/><text fill="#000000" font-family="sans-serif" font-size="10" lengthAdjust="spacing" textLength="102" x="264" y="296.7819">[P] Event-Driven + ACL</text></g><!--link AIC to VC--><g id="link_AIC_VC"><path d="M105.35,189.7219 C96.45,219.1219 87.08,268.8319 112,300.1819 C130.63,323.6319 196.3033,336.9942 255.2733,344.9042 " fill="none" id="AIC-to-VC" style="stroke:#333333;stroke-width:1.0;"/><polygon fill="#333333" points="261.22,345.7019,252.8317,340.5409,256.2644,345.0372,251.7681,348.4699,261.22,345.7019" style="stroke:#333333;stroke-width:1.0;"/><text fill="#000000" font-family="sans-serif" font-size="10" lengthAdjust="spacing" textLength="123" x="113" y="296.7819">[S]-&gt;[C] Event-Driven + ACL</text></g><!--link AIC to GMN24--><g id="link_AIC_GMN24"><path d="M139.36,139.4619 C167.12,113.8119 214.27,75.6819 263.5,60.1819 C304.52,47.2719 996.39,47.5819 1037.5,60.1819 C1049.88,63.9819 1062.17,69.1419 1074.09,75.1419 " fill="none" id="AIC-GMN24" style="stroke:#333333;stroke-width:1.0;stroke-dasharray:7.0,7.0;"/></g><!--SRC=[ZLHTYzim47pthrXo3sqfldxHF8GZu2fn2RXWS9C-X3mezfwZnfQCBBTDZ_xthkGusCwbD0auQ4OpiwkLZJ05mlBn4LC3iLRVxTE7JwgH6MR0b3Juoy0NNdbUVHIoufgNaAgoKXAbWISFYAmpr4mLIiFT1_Uvh7uzYFGeiQxXlVUdBy6rLZ_Tzl76a3mJyHlXtTlXbegdHvxZjUVKVIpv1QbfX8KgkP1Ujs7IMvp0NHWkfumvcMs4N4iXywxI7V0Q8ZQ0WY9NMfX3EIG5ZhLHATyt1TUd0RfXRPoagIgbZPKPXxg2A1fZouzXs4PRrwW7ccjdI8UKQzlGFXIVxJwZH2rIijrd8xihYEoMK_jjxO8Lh4Wmrzm89GVgmUeituy46Wj7hG-Yghqr0z-VK-jW1fCjs_dpRRA3v2HJ2EBLfCFZMpYfZyzYv12T7O9M8kxlZlhgSGJB7pIS_a8BUbxGpIrlmk_lvxRC0Q4l0Y_3nZGQNmsJNet6E7CmQCimS_3Fq6HpFLiZ-Kshq0MFHvbVGy0Yf_JyuOxKh8pjmpbiOjl0RhR1idjTVPPz3d13-1lk4vKUqGoREnxmKSgurLh_LqXFAeEWHNumDECF-tc4ESfizl1cFxT3tntr35XJ6rNIU5D9zcOM0hLbT0QpowfbNDZWhgI5OwuDtJ0RajReE6cfsHUYFj1xDE8oR-WQ4a8T8IYGHlZqMj9DvKuauYVdHxz45IA3GaWatggi2YofDim8MYX3VpgihH94Ht5DygWyi5LxVm40]--></g></svg>